<svg xmlns="http://www.w3.org/2000/svg" viewBox="0 0 321.82 293.53"><defs><style>.cls-1{fill:#fff;}.cls-2{fill:none;}</style></defs><g id="Capa_2" data-name="Capa 2"><g id="Guias"><path class="cls-1" d="M157.29,273a11.5,11.5,0,0,1-5.18,1.28c-4.15,0-6.1-2.92-6.1-7.31,0-4.21,2.09-7.06,6.43-7.06a7.78,7.78,0,0,1,4.56,1.23l-1.15,2a6.25,6.25,0,0,0-3.39-.88c-2.48,0-3.61,1.89-3.61,4.64,0,3.26,1.19,5.05,3.53,5.05a6,6,0,0,0,2.42-.49V269h-1.91l-.14-2h4.54Z"/><path class="cls-1" d="M168.51,269c0,3.43-1.73,5.26-4.73,5.26s-4.72-1.81-4.72-5.26c0-2.95,1.64-5.21,4.72-5.21s4.73,2.26,4.73,5.21m-2.76,0c0-2.42-.72-3.26-2-3.26s-1.95.86-1.95,3.26.63,3.28,1.95,3.28,2-.87,2-3.28"/><path class="cls-1" d="M173,265.05a3.55,3.55,0,0,1,2.67-1.23c2.36,0,4.07,1.68,4.07,5.21s-2.06,5.26-4.4,5.26a3.32,3.32,0,0,1-2.91-1.42l-.5,1.21H170.5V259.92h2.69v3.51Zm.19,6.24a2.41,2.41,0,0,0,1.82,1c1.17,0,2-.86,2-3.29s-.76-3.24-2-3.24a2.83,2.83,0,0,0-1.87.8Z"/><path class="cls-1" d="M182.59,274.08V266l-1.15-.24V264h3.82v10.06Zm-.08-14.16h2.71v2.44h-2.71Z"/><path class="cls-1" d="M190,269.77a2.29,2.29,0,0,0,2.59,2.49,6.89,6.89,0,0,0,2.93-.87l.51,1.89a8.05,8.05,0,0,1-3.77,1c-3.15,0-5-1.93-5-5.26,0-3.1,1.48-5.21,4.7-5.21,3,0,4.25,2.25,4.25,4.78v1.17Zm1.86-4c-1.33,0-1.86,1.21-1.86,2.4h3.67c0-1.29-.41-2.4-1.81-2.4"/><path class="cls-1" d="M204,266.26a4.55,4.55,0,0,0-1.26-.16,2.87,2.87,0,0,0-1.8.68v7.3h-2.67V264h1.87c.1.47.2.91.29,1.36h.08a2.68,2.68,0,0,1,2.39-1.54,4.55,4.55,0,0,1,1.16.14c0,.76,0,1.52-.06,2.28"/><path class="cls-1" d="M211.86,274.08v-6c0-1.52-.58-2.24-1.8-2.24a3.24,3.24,0,0,0-1.77.62v7.59H205.6V264h1.85l.41,1.15a4.15,4.15,0,0,1,3.18-1.35c2.55,0,3.55,1.5,3.55,4v6.22Z"/><path class="cls-1" d="M225.83,269c0,3.43-1.73,5.26-4.73,5.26s-4.72-1.81-4.72-5.26c0-2.95,1.65-5.21,4.72-5.21s4.73,2.26,4.73,5.21m-2.75,0c0-2.42-.73-3.26-2-3.26s-1.94.86-1.94,3.26.63,3.28,1.94,3.28,2-.87,2-3.28"/><path class="cls-1" d="M238.88,264.8a5.63,5.63,0,0,1-.26-1.84v-3h2.68v14.16h-2.18l-.31-1.11a3.26,3.26,0,0,1-2.67,1.32c-2.28,0-4.11-1.64-4.11-5.24,0-3.32,1.89-5.23,4.34-5.23a3.31,3.31,0,0,1,2.51,1m-.26,1.52a3.62,3.62,0,0,0-1.82-.49c-1.27,0-2.08.86-2.08,3.2s.77,3.31,2,3.31a2.63,2.63,0,0,0,1.86-.87Z"/><path class="cls-1" d="M246,269.77a2.28,2.28,0,0,0,2.58,2.49,7,7,0,0,0,2.95-.87l.51,1.89a8.1,8.1,0,0,1-3.78,1c-3.14,0-5-1.93-5-5.26,0-3.1,1.48-5.21,4.7-5.21,3,0,4.25,2.25,4.25,4.78v1.17Zm1.87-4c-1.34,0-1.87,1.21-1.87,2.4h3.68c0-1.29-.41-2.4-1.81-2.4"/><path class="cls-1" d="M264.51,274.29c-3.91,0-6-2.63-6-7.25,0-4.25,2.06-7.12,6-7.12a8.7,8.7,0,0,1,4.72,1.17l-1,2.13a6,6,0,0,0-3.41-.94c-2.3,0-3.45,1.7-3.45,4.74,0,3.2,1.15,4.91,3.41,4.91a6.53,6.53,0,0,0,3.66-1.27l.86,2.15a8.17,8.17,0,0,1-4.76,1.48"/><path class="cls-1" d="M271.12,274.08V259.92h2.69v3.71a6.12,6.12,0,0,1-.26,1.56,3.45,3.45,0,0,1,2.84-1.37c2.9,0,3.72,1.5,3.72,4v6.22h-2.73v-6a1.1,1.1,0,0,0-.14-.62c-.09-1.13-.66-1.62-1.66-1.62a3.24,3.24,0,0,0-1.77.62v7.59Z"/><path class="cls-1" d="M283.12,274.08V266l-1.16-.24V264h3.82v10.06ZM283,259.92h2.71v2.44H283Z"/><path class="cls-1" d="M288.23,271.41V259.92h2.65v11.35c0,.84.51,1,1.62,1v1.89a8.63,8.63,0,0,1-1.48.16c-2,0-2.79-1.09-2.79-2.88"/><path class="cls-1" d="M296.57,269.77a2.28,2.28,0,0,0,2.58,2.49,6.89,6.89,0,0,0,2.94-.87l.51,1.89a8.05,8.05,0,0,1-3.77,1c-3.14,0-5-1.93-5-5.26,0-3.1,1.48-5.21,4.7-5.21,3,0,4.25,2.25,4.25,4.78v1.17Zm1.87-4c-1.34,0-1.87,1.21-1.87,2.4h3.67c0-1.29-.41-2.4-1.8-2.4"/><path class="cls-1" d="M316.81,0H0V293.53H321.82V0ZM5,5H130.24V288.53H5ZM316.82,288.53H135.25V5H316.81Z"/><path class="cls-1" d="M71.54,43.88a1.24,1.24,0,0,0,.4-1.7c-.23-.45-.83-.5-.57-.55,3.21-.75,4.92-5.43,4.82-7.22,1.64,1.52,5.34,2,8-.33,1.73-1.67,2.56-6-.4-8.24a5.2,5.2,0,0,0-5.87.08,3,3,0,0,0-2.45-1.53,5.82,5.82,0,0,0-1.21-3.79c-1.6-1.75-6.1-1.88-7.73,0-3.24-.81-7.44.68-7.2,5.74a9.49,9.49,0,0,0-4.78-.8,5.62,5.62,0,0,0-3.16,1.81,8.2,8.2,0,0,0-.7,1.12,5.29,5.29,0,0,0,1.81,6.79,8.46,8.46,0,0,0,4.91.72,3.59,3.59,0,0,0,2-1.11c.21-.21.37-.55.67-.56a4,4,0,0,0,2.54,4c0,.12.05.23.08.4.85,3.34,3.1,2.93,3.14,3.16a1.28,1.28,0,0,0-.34,1.93,11.32,11.32,0,0,1,3-.53A11.06,11.06,0,0,1,71.54,43.88Z"/><polygon class="cls-2" points="68.18 47.24 66.16 53.92 58.95 53.92 58.97 53.93 64.81 58.11 62.58 64.72 68.18 60.47 73.79 64.72 71.55 58.11 77.39 53.93 77.41 53.92 70.2 53.92 68.18 47.24"/><path class="cls-1" d="M79.14,54a10,10,0,0,1,2.28-6,.9.9,0,0,0,.26-.72.69.69,0,0,0-.33-.52c-.65-.44-2.1-1.33-2.1-1.33l-.12-.1H79c-.16,0-.28.09-.48.24a3.71,3.71,0,0,1-2.45.89,4.44,4.44,0,0,1-.71-.06,8,8,0,0,1-1.83-.67c-.37-.2-.83-.4-1-.49l-.09,0a9.47,9.47,0,0,0-7.8,0l-.09,0-.46.22L62.94,46a5.58,5.58,0,0,1-1.24.4,4.46,4.46,0,0,1-.72.06,3.73,3.73,0,0,1-2.45-.89.87.87,0,0,0-.47-.24h-.12l-.07.05s-1.48.91-2.1,1.34a.77.77,0,0,0-.38.55.9.9,0,0,0,.26.72,10.1,10.1,0,0,1,2.28,6c0,.38.22,2.4-1.5,5.38-.08.15-2,3.61.1,6.64,0,0,1.56,2.85,6.08,2.85.37,0,3.71.06,4.86,2.2,0,.09.59.94.8,1.36l.26.51.26-.51c.22-.42.74-1.26.82-1.38,1.13-2.12,4.48-2.18,4.85-2.18,4.46,0,6.05-2.81,6.05-2.81,2.12-3.11.14-6.67.13-6.68A9,9,0,0,1,79.14,54Zm-1.75,0-5.84,4.18,2.24,6.61-5.61-4.25-5.6,4.25,2.23-6.61L59,53.93h7.19l2-6.69,2,6.69h7.19Z"/><path class="cls-2" d="M48.64,86.15c3.17,3.27,7.79,1.46,7.79,1.46.74-.11,1.12-2.37,1.31-4.13a67.33,67.33,0,0,1-8-1.51A17.67,17.67,0,0,0,48.64,86.15Z"/><path class="cls-2" d="M47.79,72.33a.87.87,0,0,0-.35-.22c-.4-.07-.69.27-1.15.18s-3.66-2.6-3.9-2.75A9.85,9.85,0,0,1,40,67.69c-.35-.48-.07-1.11-.15-1.7a2.43,2.43,0,0,0-1.46-1.77,7.65,7.65,0,0,1-6,5.62c-.6,2.37.34,7,.88,7.55a2.54,2.54,0,0,1,1.13.55,5,5,0,0,1,.29-1.52c1.23-2.51,4.12-1.72,4.12-1.72a1.77,1.77,0,0,1,1.22,1.2c.39,2-1.26,2.16-1.26,2.16-1.18.06-1.21-.9-1.21-.9-.14-.93,1.18-1,1.18-1-1.12-2-4.62,1.25-2.32,4.07a.3.3,0,0,0,.45.09c6.9-3.41,8-4.87,8-4.87a30.23,30.23,0,0,1,3.43-2.67A4.81,4.81,0,0,1,47.79,72.33Z"/><path class="cls-2" d="M80.46,44.78l.41.33Z"/><path class="cls-2" d="M82.68,46.5l-.75-.57.75.57Z"/><path class="cls-2" d="M81.11,45.3l.69.53Z"/><path class="cls-2" d="M47.27,85a6.33,6.33,0,0,0,.5-1.47,11.71,11.71,0,0,1,.66-1.82c-.75-.21-1.47-.47-2.21-.71A9.77,9.77,0,0,0,47.27,85Z"/><path class="cls-2" d="M79.83,83.48c.19,1.76.58,4,1.31,4.13,0,0,4.62,1.81,7.79-1.46A17.54,17.54,0,0,0,87.85,82,67,67,0,0,1,79.83,83.48Z"/><path class="cls-2" d="M89.79,83.49A6.45,6.45,0,0,0,90.3,85a9.76,9.76,0,0,0,1-4c-.73.24-1.45.49-2.2.7A11.59,11.59,0,0,1,89.79,83.49Z"/><path class="cls-2" d="M55.44,77.16a5.2,5.2,0,0,0-3.57,1.47c1.73.4,3.76.77,6,1.09C57.5,77.14,55.44,77.16,55.44,77.16Z"/><path class="cls-2" d="M86.9,78.35c1.38-.35,2.63-.7,3.61-1a6.59,6.59,0,0,0-.72-1.17s-3.91-4.75-10.93-2.08c-.14.05.31,1.18,2.24,1.61A10.22,10.22,0,0,1,86.9,78.35Z"/><path class="cls-2" d="M82.14,77.16s-2.07,0-2.45,2.56c2.25-.31,4.29-.68,6-1.08A5.21,5.21,0,0,0,82.14,77.16Z"/><path class="cls-2" d="M62.44,75.53a1.71,1.71,0,0,0-1.24-.71c-1,0-1.22,2.35-1.51,5.15,2.15.24,4.55.39,7.08.46C65.69,78.21,63.31,76.75,62.44,75.53Z"/><path class="cls-2" d="M47.77,76.18a7.53,7.53,0,0,0-.71,1.16c1,.3,2.23.65,3.62,1a10.2,10.2,0,0,1,5.79-2.63c1.93-.43,2.38-1.56,2.24-1.61C51.69,71.43,47.77,76.18,47.77,76.18Z"/><path class="cls-2" d="M76.37,74.82a1.68,1.68,0,0,0-1.23.71c-.89,1.22-3.26,2.68-4.35,4.9,2.54-.07,4.94-.21,7.09-.46C77.59,77.17,77.38,74.81,76.37,74.82Z"/><path class="cls-1" d="M118.21,81.71c-.74-.89-2.68-.45-2.68-.45a2.87,2.87,0,0,0-1.82-3.93,2.5,2.5,0,0,0-2.14.22l0,0s0,0,0,0a1.66,1.66,0,0,0-.21.16,1.55,1.55,0,0,0-.42,1,1.5,1.5,0,0,0,1.5,1.49,1.59,1.59,0,0,0,.86-.27,1.52,1.52,0,0,0,.59-.89,1.51,1.51,0,0,1,.55.7c.83,2.65-2.14,3.6-2.14,3.6-6.57,2-10.59-1.43-10.59-1.43l1.14-.61a2.7,2.7,0,0,1,1-.23.64.64,0,0,0,0,.2,1.31,1.31,0,0,0,2.61,0,1.23,1.23,0,0,0-.26-.8c-.77-1.16-3.42-.39-3.42-.39a4.8,4.8,0,0,0,.09-3.75c-1.23-2.51-4.12-1.72-4.12-1.72a1.77,1.77,0,0,0-1.22,1.2c-.39,2,1.26,2.16,1.26,2.16,1.19.06,1.2-.9,1.2-.9.15-.93-1.16-1-1.16-1,1.1-2,4.6,1.25,2.31,4.07a.3.3,0,0,1-.45.09,45.88,45.88,0,0,1-7.12-4.1c-.1-1.11-1.07-1.68-.89-2,.17-.07.74.22,1.07-.26.11-.18.38-1.94.6-3.19a11.59,11.59,0,0,0,7.34,1,.83.83,0,0,0,.57-.83c.06-1.38-3.51-9.49-3.61-12.36,1.69.84,2.73-1.77,3-2.56,2.26,1,3,22.08,4.79,22.79.87.36,1.22-1.08,1.3-1.34a69.17,69.17,0,0,0,2.72-21.59,58.49,58.49,0,0,0-1.83-13c-.71-2.44-2.08-7.4-5.29-8.08a2.28,2.28,0,0,0-2.62,2.34c0,1.09.78,1.62.44,2.69a9.26,9.26,0,0,0-1,2.25c-.19.78.5,1.1.28,1.93-1-.15-1.53.74-3.12.33,1-.48,1-3.45-.22-4-.19-.08-.41-.11-.45-.28a4,4,0,0,0,.62-.86,4,4,0,0,0,.15-3.83c.52.05,1.08-.92,1.15-1.69h0v-.06h0a3.55,3.55,0,0,1,.29-1.52.43.43,0,0,0-.18-.54.42.42,0,0,0-.53.21c-.31.66-1.07.29-.75-.38a.4.4,0,0,0-.18-.53.4.4,0,0,0-.52.2c-.3.63-1,.28-.73-.36a.39.39,0,0,0-.17-.53.41.41,0,0,0-.53.2c-.31.65-1.07.29-.75-.37a.41.41,0,0,0-.18-.54.41.41,0,0,0-.52.2,3.09,3.09,0,0,1-.91,1.27c-.71.12-.53.94-.44,1.49a1.93,1.93,0,0,0-2.37,1.64H90c-1.1,0-2.15.59-2.07,1.6a1.78,1.78,0,0,0,1,1.3c.12,0-.06-.61.51-.65a1.51,1.51,0,0,1,1.39.91c.12.57-.35,1.92,1.45,2.12l0,.57a5,5,0,0,0-1.45,0c-1.13.18-2.68.82-3.06,1.94a2.09,2.09,0,0,0-.08.85c0,.23.24.52.21.8a1.5,1.5,0,0,1-.35.51,3.48,3.48,0,0,1-2.12,1,2.61,2.61,0,0,1-2-1c-1.14-1.54.34-4.19.31-5.17-.06-2.63-3.38-1.07-4.7-.38A12.93,12.93,0,0,0,75.05,42a11,11,0,0,0-1.55,2.37.28.28,0,0,1-.32.16,7.84,7.84,0,0,0,2.8.76,4.45,4.45,0,0,0,3.14-.85.78.78,0,0,1,.46-.16.75.75,0,0,1,.5.21,4.7,4.7,0,0,0,.38.32l.41.33.24.19.69.53.13.1.75.57h0l.67.49h0a.45.45,0,0,1,.11.19.48.48,0,0,1-.13.33l-.35.42a13.89,13.89,0,0,0-1.75,3c.62,1.08,1.66,2.37,3.15,2.38A1.65,1.65,0,0,0,86.26,52a.93.93,0,0,0,.1.1c.14-.12.8,3.43,1.66,4.4-.81.38-2.07,1.65-1.38,5.17a31.51,31.51,0,0,1-2.49-2.08c-.36-.73-1.05-2.45-3-2.61a15.53,15.53,0,0,0,1.35,3,8.59,8.59,0,0,1,.84,4.8c.84-.86.71-3.2.71-3.2a1.42,1.42,0,0,1,.18-.08c.17,0,1,1.62,2.45,2a18.49,18.49,0,0,0,6,6.53c0,.78.06,2.63-.44,2.63-1.6.36-3.08-.73-4.5-.65l-.24-.12C81.39,68.85,73.37,75.14,72,76.36c-.71.65-1.52-.23-1.52-.23a2.24,2.24,0,0,0-3.45,0s-.82.88-1.52.23C64.27,75.21,57,69.58,51.06,71.5c0-.33-.82-.49-1-.58a5.52,5.52,0,0,1-1.18-.65,8.48,8.48,0,0,0-2.44-.21,2.8,2.8,0,0,1-.95-.35,9.06,9.06,0,0,1-2.64-2.16L42.43,67a3.79,3.79,0,0,1-.67-1.26c-.32-1.17.18-2.43.35-3.62.13-.88.1-.93.18-1.88a11.13,11.13,0,0,0,6.2-5.63c.08-.12.32-.6.32-.6a4.06,4.06,0,0,0,.51,0c1.51,0,2.53-.83,4.18-.63,0,.09.22.79,1.29,1.23a6.59,6.59,0,0,0,.52,2.81,4.4,4.4,0,0,0,.29.39A11.48,11.48,0,0,0,56.51,54a.81.81,0,0,1-.13-.32,3.52,3.52,0,0,0-2-2.81,9.57,9.57,0,0,1-1.22-.56,4.35,4.35,0,0,1-1.6-1.59,5,5,0,0,0,.4-.44,9.34,9.34,0,0,0,2-4.51c.8-1.1,3-.67,3.89-.51a1.83,1.83,0,0,1,.77.24c.24.17.29.55.63.69a2.47,2.47,0,0,0,1.18,0,3.2,3.2,0,0,1,.36.66,2.35,2.35,0,0,0,.34.44,8.49,8.49,0,0,0,3-.88.56.56,0,0,1-.16-.13,3.54,3.54,0,0,0-1.84-1.37c-.84-.14-1-.88-1.81-1a2.93,2.93,0,0,0-1.15-.08c-1.77.23-3-.44-4.67-.56s-1.62,1-2.19,1.85a5.55,5.55,0,0,1-.72,1c-.44.42-.94.44-1.47.83l-.24-.65a5.52,5.52,0,0,0-.7-1.64,5.65,5.65,0,0,0-3.73-2.81,2,2,0,0,1-.65-.36.33.33,0,0,1,0-.56c.54-.31,1.47-.2,2.08-.48,1.51-.7,1-2,.39-2.09a13.75,13.75,0,0,1-2.41-.66c-.36-.23-1-1.39-1.6-1.67s-.43-1.26-1-1.5a2.14,2.14,0,0,0-1.09.3c0-.22-.19-1.45-.86-1.86-.51-.29-.69.16-.67.46s.74.62.88,1.79a3.73,3.73,0,0,0-.37.23,2.34,2.34,0,0,0-.81-1.52c-.5-.29-.69.16-.66.46s.65.57.85,1.56c-.15.12-.29.25-.43.38-1-.28-1.29-1-1.55-1s-.75.08-.51.62a2.37,2.37,0,0,0,1.47,1l-.28.34c-1.17-.24-1.46-1-1.73-1.07s-.75.09-.51.62c.34.75,1.67,1,1.8,1.07a1.29,1.29,0,0,0-.27.82c-.91-.11-2.54.38-2.23,1.46.3.22,1.38-.66,2.38-.17a3.63,3.63,0,0,0,1.95,1.25c.36.29.42.82.59,1.29a10.42,10.42,0,0,0,1.42,2.37c.57.86,1.16,1.76,1.75,2.51a1.57,1.57,0,0,1,.1.73c-.68,1.07-2.69,2.32-3.52,3.09s-8.72,6.79-9.71,9.41a5.33,5.33,0,0,0-.31,2.11c-.48.26-1.54.68-1.87.21-.61-.85.57-1.49.31-2.31a.62.62,0,0,0-.87-.31,2.66,2.66,0,0,0,.29,4.47c1.37.56,1.56-.91,2.62-.31.25.14,2.76,2.38,2.34,4.14a4.08,4.08,0,0,1-.17.42c-.55.68-1.47,1.2-2.09,1.84-1.31.83,1.23,6,1,8.68-.14,1,.85.89,1.45,2.48a1.83,1.83,0,0,0-1.53.63,1.16,1.16,0,0,0-.26.8,1.3,1.3,0,0,0,2.6,0,1.23,1.23,0,0,0,0-.2,2.7,2.7,0,0,1,1.05.23l1.14.61s-4,3.4-10.58,1.43c0,0-3-1-2.15-3.6a1.51,1.51,0,0,1,.55-.7,1.52,1.52,0,0,0,.59.89,1.59,1.59,0,0,0,.86.27,1.49,1.49,0,0,0,1.49-1.49,1.54,1.54,0,0,0-.41-1,1.66,1.66,0,0,0-.21-.16v0l0,0a2.49,2.49,0,0,0-2.15-.23A2.88,2.88,0,0,0,22,81.26s-1.93-.44-2.67.45a1.09,1.09,0,0,0-.23.73v0a1.72,1.72,0,0,0,.21.63,1.12,1.12,0,0,0,.92.48,1.14,1.14,0,0,0,.88-.41s0,0,0,0,.31-.23.66.13c4.36,4.54,11.46,2.67,15.4-.37a23.86,23.86,0,0,1,4.62-3.55c.94.41,2,.71,2.93,1.06a9.46,9.46,0,0,0,1.8,5.8s-1.11,2-3,.92a1.55,1.55,0,0,1-.21-2.35s.79-.66,1.13.16a.78.78,0,0,0-.73.77.76.76,0,0,0,.76.76.75.75,0,0,0,.76-.72,1.85,1.85,0,0,0-.62-1.67,2,2,0,0,0-1.73-.47c-1.65.26-2.59,3.72.68,5.15,0,0,2.57,1.17,3.89-.75,0,0,0-.27.47.2,2.72,2.64,8.78,1.87,11.19.08,0,0,.61-.38,1.28-.7a1.89,1.89,0,1,0,2.21-1.91,3.91,3.91,0,0,0-3,.71,12.94,12.94,0,0,1-1.75,1,11,11,0,0,0,1.28-3.73c2.64.29,5.36.49,8.17.55a8.1,8.1,0,0,1-.46,2.58s-1,.41-1,1.11c0,0-.11.51.77,1.22a4.63,4.63,0,0,1,.83,1.26s0,.77,1.11.77l.2,0,.21,0c1.06,0,1.11-.77,1.11-.77a4.89,4.89,0,0,1,.83-1.26c.88-.71.77-1.22.77-1.22,0-.7-1-1.11-1-1.11a7.83,7.83,0,0,1-.46-2.58c2.81-.06,5.53-.25,8.17-.54a10.72,10.72,0,0,0,1.28,3.72,12.94,12.94,0,0,1-1.75-1,3.94,3.94,0,0,0-3-.71,1.89,1.89,0,1,0,2.22,1.91c.67.32,1.28.7,1.28.7,2.4,1.79,8.47,2.56,11.19-.08.49-.47.47-.2.47-.2,1.32,1.92,3.89.75,3.89.75,3.26-1.43,2.33-4.89.68-5.15a2,2,0,0,0-1.73.47,1.85,1.85,0,0,0-.62,1.67.76.76,0,0,0,1.51,0,.77.77,0,0,0-.72-.77c.34-.82,1.13-.16,1.13-.16A1.55,1.55,0,0,1,94,87.15c-1.88,1.13-3-.92-3-.92a9.47,9.47,0,0,0,1.8-5.78c1-.36,2-.66,2.94-1.07a23.78,23.78,0,0,1,4.61,3.54c3.94,3,11,4.91,15.4.37.35-.36.58-.23.66-.13s0,0,0,0a1.13,1.13,0,0,0,1.8-.07,1.72,1.72,0,0,0,.21-.63h0v0A1.09,1.09,0,0,0,118.21,81.71Zm-81.3-1.37a.3.3,0,0,1-.45-.09c-2.3-2.82,1.2-6,2.32-4.07,0,0-1.32,0-1.18,1,0,0,0,1,1.21.9,0,0,1.65-.17,1.26-2.16a1.77,1.77,0,0,0-1.22-1.2s-2.89-.79-4.12,1.72a5,5,0,0,0-.29,1.52,2.54,2.54,0,0,0-1.13-.55c-.54-.57-1.48-5.18-.88-7.55a7.65,7.65,0,0,0,6-5.62A2.43,2.43,0,0,1,39.88,66c.08.59-.2,1.22.15,1.7a9.85,9.85,0,0,0,2.36,1.85c.24.15,3.48,2.66,3.9,2.75s.75-.25,1.15-.18a.87.87,0,0,1,.35.22,4.81,4.81,0,0,0,.57.47,30.23,30.23,0,0,0-3.43,2.67S43.81,76.93,36.91,80.34Zm10.86,3.15a6.33,6.33,0,0,1-.5,1.47,9.77,9.77,0,0,1-1.05-4c.74.24,1.46.5,2.21.71A11.71,11.71,0,0,0,47.77,83.49Zm8.66,4.12s-4.62,1.81-7.79-1.46A17.67,17.67,0,0,1,49.72,82a67.33,67.33,0,0,0,8,1.51C57.55,85.24,57.17,87.5,56.43,87.61Zm-4.56-9a5.2,5.2,0,0,1,3.57-1.47s2.06,0,2.43,2.56C55.63,79.4,53.6,79,51.87,78.63Zm4.6-2.92a10.2,10.2,0,0,0-5.79,2.63c-1.39-.35-2.64-.7-3.62-1a7.53,7.53,0,0,1,.71-1.16s3.92-4.75,10.94-2.08C58.85,74.15,58.4,75.28,56.47,75.71ZM59.69,80c.29-2.8.5-5.16,1.51-5.15a1.71,1.71,0,0,1,1.24.71c.87,1.22,3.25,2.68,4.33,4.9C64.24,80.36,61.84,80.21,59.69,80Zm11.1.46c1.09-2.22,3.46-3.68,4.35-4.9a1.68,1.68,0,0,1,1.23-.71c1,0,1.22,2.35,1.51,5.15C75.73,80.22,73.33,80.36,70.79,80.43Zm8.07-6.33c7-2.67,10.93,2.08,10.93,2.08a6.59,6.59,0,0,1,.72,1.17c-1,.3-2.23.65-3.61,1a10.22,10.22,0,0,0-5.8-2.64C79.17,75.28,78.72,74.15,78.86,74.1Zm3.28,3.06a5.21,5.21,0,0,1,3.57,1.48c-1.73.4-3.77.77-6,1.08C80.07,77.13,82.14,77.16,82.14,77.16Zm-1,10.45c-.73-.11-1.12-2.37-1.31-4.13a67,67,0,0,0,8-1.5,17.54,17.54,0,0,1,1.08,4.17C85.76,89.42,81.14,87.61,81.14,87.61ZM90.3,85a6.45,6.45,0,0,1-.51-1.47,11.59,11.59,0,0,0-.65-1.81c.75-.21,1.47-.46,2.2-.7A9.76,9.76,0,0,1,90.3,85Z"/><path class="cls-1" d="M162.29,37.15l-.36-14.82h-.1c-.32,1.87-.63,3.22-.86,4.23l-2.5,10.59h-5l-2.39-10.59c-.23-1-.54-2.36-.88-4.23h-.11l-.23,14.82h-3.12l.68-17.56h5.84s1.93,8.85,2.94,14.51h.08c1.17-5.64,3.46-14.51,3.46-14.51h5.75l.67,17.56Z"/><path class="cls-1" d="M170.12,37.15V26.85l-1.48-.31V24.41h4.86V37.15ZM170,19.21h3.44V22.3H170Z"/><path class="cls-1" d="M184.5,37.15V29.58c0-1.92-.73-2.83-2.29-2.83a4,4,0,0,0-2.24.78v9.62h-3.4V24.41h2.34l.52,1.45a5.26,5.26,0,0,1,4-1.71c3.22,0,4.49,1.89,4.49,5.12v7.88Z"/><path class="cls-1" d="M191.78,37.15V26.85l-1.49-.31V24.41h4.87V37.15Zm-.11-17.94h3.43V22.3h-3.43Z"/><path class="cls-1" d="M201.19,27.76c0,2,5.51,1.38,5.51,5.54,0,2.31-1.72,4.11-5,4.11a8.15,8.15,0,0,1-3.82-.94l.7-2.37a5.91,5.91,0,0,0,3,.89c1.12,0,1.87-.63,1.87-1.41,0-2.28-5.43-1.53-5.43-5.87,0-1.87,1.42-3.56,4.86-3.56a10.36,10.36,0,0,1,3.59.62L206,27.24a7.61,7.61,0,0,0-3.07-.65C201.76,26.59,201.19,27,201.19,27.76Z"/><path class="cls-1" d="M214.08,37.41c-2.26,0-3.74-1.07-3.74-4.27V26.82h-1.9V24.41h1.9V22.2l3.35-1.1v3.31h3.41v2.41h-3.41v6.24a1.28,1.28,0,0,0,1.36,1.46,4.59,4.59,0,0,0,1.95-.47l.52,2.5A7.36,7.36,0,0,1,214.08,37.41Z"/><path class="cls-1" d="M222,31.69c0,2,1.15,3.14,3.28,3.14A8.54,8.54,0,0,0,229,33.77l.65,2.39a10.49,10.49,0,0,1-4.81,1.25c-3.92,0-6.26-2.45-6.26-6.66,0-3.93,1.89-6.6,6-6.6,3.84,0,5.35,2.86,5.35,6.05v1.49Zm2.39-5.05c-1.69,0-2.39,1.54-2.39,3h4.66C226.62,28.05,226.12,26.64,224.35,26.64Z"/><path class="cls-1" d="M239.69,27.24a5.65,5.65,0,0,0-1.58-.21,3.66,3.66,0,0,0-2.29.86v9.26h-3.38V24.41h2.36l.37,1.71h.08a3.41,3.41,0,0,1,3-1.95,6.22,6.22,0,0,1,1.48.18Z"/><path class="cls-1" d="M242.79,37.15V26.85l-1.49-.31V24.41h4.87V37.15Zm-.11-17.94h3.43V22.3h-3.43Z"/><path class="cls-1" d="M260.7,30.75c0,4.34-2.18,6.66-6,6.66s-6-2.29-6-6.66c0-3.74,2.08-6.6,6-6.6S260.7,27,260.7,30.75Zm-3.48,0c0-3.07-.91-4.13-2.5-4.13s-2.47,1.09-2.47,4.13.81,4.16,2.47,4.16S257.22,33.79,257.22,30.75Z"/><path class="cls-1" d="M277.21,25.39a7.76,7.76,0,0,1-.31-2.34V19.21h3.38V37.15h-2.76l-.39-1.41a4.13,4.13,0,0,1-3.38,1.67c-2.88,0-5.2-2.08-5.2-6.63,0-4.22,2.39-6.63,5.49-6.63A4.13,4.13,0,0,1,277.21,25.39Zm-.31,1.93a4.58,4.58,0,0,0-2.32-.63c-1.61,0-2.62,1.1-2.62,4.06s1,4.19,2.57,4.19a3.36,3.36,0,0,0,2.37-1.1Z"/><path class="cls-1" d="M286.26,31.69c0,2,1.14,3.14,3.27,3.14a8.58,8.58,0,0,0,3.75-1.06l.65,2.39a10.49,10.49,0,0,1-4.81,1.25c-3.93,0-6.27-2.45-6.27-6.66,0-3.93,1.9-6.6,6-6.6,3.85,0,5.36,2.86,5.36,6.05v1.49Zm2.39-5.05c-1.69,0-2.39,1.54-2.39,3h4.65C290.91,28.05,290.42,26.64,288.65,26.64Z"/><path class="cls-1" d="M146.9,60.27V45.71h3.35V60.08c0,1.07.65,1.23,2.06,1.23V63.7a10.58,10.58,0,0,1-1.87.21C147.84,63.91,146.9,62.53,146.9,60.27Z"/><path class="cls-1" d="M162.37,63.65l-.47-1.51a4.57,4.57,0,0,1-3.72,1.77,4,4,0,0,1-4.26-4.09c0-2.36,1.74-3.77,4.81-3.77h2.68V55.4c0-1.64-.94-2.15-2.24-2.15a9.17,9.17,0,0,0-3.82.85l-.86-2.42a13,13,0,0,1,5-1c3.61,0,5.18,1.66,5.18,4.91v8.09Zm-1-5.57H159.3c-1.4,0-2.05.68-2.05,1.64a1.69,1.69,0,0,0,1.9,1.87,3.79,3.79,0,0,0,2.26-.86Z"/><path class="cls-1" d="M170.59,54.26c0,2,5.51,1.38,5.51,5.54,0,2.31-1.72,4.11-5,4.11a8.15,8.15,0,0,1-3.82-.94l.7-2.37a5.91,5.91,0,0,0,3,.89c1.11,0,1.87-.63,1.87-1.41,0-2.28-5.44-1.53-5.44-5.87,0-1.87,1.43-3.56,4.87-3.56a10.26,10.26,0,0,1,3.58.62l-.46,2.47a7.61,7.61,0,0,0-3.07-.65C171.16,53.09,170.59,53.53,170.59,54.26Z"/><path class="cls-1" d="M191.7,63.91c-4.94,0-7.59-3.28-7.59-9.13,0-5.46,2.62-8.94,7.59-8.94a10.94,10.94,0,0,1,6,1.48l-1.3,2.75a7.37,7.37,0,0,0-4.32-1.22c-2.91,0-4.37,2.06-4.37,5.9,0,4.06,1.46,6.14,4.32,6.14a8.17,8.17,0,0,0,4.63-1.61L197.73,62A10.35,10.35,0,0,1,191.7,63.91Z"/><path class="cls-1" d="M208.55,63.65,208,62.09a5,5,0,0,1-4,1.82c-3.17,0-4.63-1.77-4.63-5.28V50.91h3.38v7.74c0,2,.7,2.66,2.24,2.66a4,4,0,0,0,2.28-.76V50.91h3.46V63.65Z"/><path class="cls-1" d="M213.64,60.27V45.71H217V60.08c0,1.07.66,1.23,2.06,1.23V63.7a10.58,10.58,0,0,1-1.87.21C214.58,63.91,213.64,62.53,213.64,60.27Z"/><path class="cls-1" d="M226,63.91c-2.26,0-3.74-1.07-3.74-4.27V53.32h-1.9V50.91h1.9V48.7l3.35-1.1v3.31H229v2.41h-3.41v6.24A1.28,1.28,0,0,0,226.93,61a4.59,4.59,0,0,0,1.95-.47l.52,2.5A7.36,7.36,0,0,1,226,63.91Z"/><path class="cls-1" d="M240.47,63.65,240,62.09a5,5,0,0,1-4,1.82c-3.17,0-4.62-1.77-4.62-5.28V50.91h3.38v7.74c0,2,.7,2.66,2.23,2.66a4,4,0,0,0,2.29-.76V50.91h3.46V63.65Z"/><path class="cls-1" d="M252.77,53.74a5.73,5.73,0,0,0-1.59-.21,3.63,3.63,0,0,0-2.28.86v9.26h-3.38V50.91h2.36l.37,1.71h.07a3.42,3.42,0,0,1,3.05-1.95,6.22,6.22,0,0,1,1.48.18Z"/><path class="cls-1" d="M262.42,63.65,262,62.14a4.59,4.59,0,0,1-3.72,1.77A4,4,0,0,1,254,59.82c0-2.36,1.74-3.77,4.81-3.77h2.67V55.4c0-1.64-.93-2.15-2.23-2.15a9.17,9.17,0,0,0-3.82.85l-.86-2.42a12.94,12.94,0,0,1,5-1c3.61,0,5.17,1.66,5.17,4.91v8.09Zm-1-5.57h-2.1c-1.41,0-2.06.68-2.06,1.64a1.7,1.7,0,0,0,1.9,1.87,3.74,3.74,0,0,0,2.26-.86Z"/><path class="cls-1" d="M270.63,54.26c0,2,5.51,1.38,5.51,5.54,0,2.31-1.71,4.11-5,4.11A8.16,8.16,0,0,1,267.3,63L268,60.6a5.84,5.84,0,0,0,3,.89c1.12,0,1.87-.63,1.87-1.41,0-2.28-5.43-1.53-5.43-5.87,0-1.87,1.43-3.56,4.86-3.56a10.28,10.28,0,0,1,3.59.62l-.47,2.47a7.61,7.61,0,0,0-3.07-.65C271.2,53.09,270.63,53.53,270.63,54.26Z"/><path class="cls-1" d="M278.51,60h3.43v3.87c0,2.19-1.25,3.1-3.43,3.33V65.41c.47-.1.81-.54.81-1.76l-.81-.39Z"/><path class="cls-1" d="M146.9,86.77V72.21h3.35V86.58c0,1.07.65,1.23,2.06,1.23V90.2a10.58,10.58,0,0,1-1.87.21C147.84,90.41,146.9,89,146.9,86.77Z"/><path class="cls-1" d="M162.37,90.15l-.47-1.51a4.57,4.57,0,0,1-3.72,1.77,4,4,0,0,1-4.26-4.09c0-2.36,1.74-3.77,4.81-3.77h2.68V81.9c0-1.64-.94-2.15-2.24-2.15a9.17,9.17,0,0,0-3.82.85l-.86-2.42a13,13,0,0,1,5-1c3.61,0,5.18,1.66,5.18,4.91v8.09Zm-1-5.57H159.3c-1.4,0-2.05.68-2.05,1.64a1.69,1.69,0,0,0,1.9,1.87,3.79,3.79,0,0,0,2.26-.86Z"/><path class="cls-1" d="M170.59,80.76c0,2,5.51,1.38,5.51,5.54,0,2.31-1.72,4.11-5,4.11a8.15,8.15,0,0,1-3.82-.94l.7-2.37a5.91,5.91,0,0,0,3,.89c1.11,0,1.87-.63,1.87-1.41,0-2.28-5.44-1.53-5.44-5.87,0-1.87,1.43-3.56,4.87-3.56a10.26,10.26,0,0,1,3.58.62l-.46,2.47a7.61,7.61,0,0,0-3.07-.65C171.16,79.59,170.59,80,170.59,80.76Z"/><path class="cls-1" d="M186.63,90.15H183.3l4.76-17.56h5.67l4.6,17.56h-3.82l-.91-4h-6Zm3.48-14.56-1.92,7.85H193l-1.79-7.85Z"/><path class="cls-1" d="M207.43,80.24a5.78,5.78,0,0,0-1.59-.21,3.68,3.68,0,0,0-2.29.86v9.26h-3.38V77.41h2.37l.36,1.71H203a3.42,3.42,0,0,1,3-2,6.25,6.25,0,0,1,1.49.18Z"/><path class="cls-1" d="M214.19,90.41c-2.26,0-3.75-1.07-3.75-4.27V79.82h-1.89V77.41h1.89V75.2l3.36-1.1v3.31h3.4v2.41h-3.4v6.24c0,.89.44,1.46,1.35,1.46a4.59,4.59,0,0,0,1.95-.47l.52,2.5A7.31,7.31,0,0,1,214.19,90.41Z"/><path class="cls-1" d="M222.06,84.69c0,2,1.15,3.14,3.28,3.14a8.58,8.58,0,0,0,3.75-1.06l.65,2.39a10.49,10.49,0,0,1-4.81,1.25c-3.93,0-6.27-2.45-6.27-6.66,0-3.93,1.9-6.6,6-6.6,3.85,0,5.36,2.86,5.36,6v1.49Zm2.4-5c-1.69,0-2.4,1.54-2.4,3h4.66C226.72,81.05,226.23,79.64,224.46,79.64Z"/><path class="cls-1" d="M235.51,80.76c0,2,5.51,1.38,5.51,5.54,0,2.31-1.72,4.11-5,4.11a8.15,8.15,0,0,1-3.82-.94l.7-2.37a5.91,5.91,0,0,0,3,.89c1.12,0,1.87-.63,1.87-1.41,0-2.28-5.43-1.53-5.43-5.87,0-1.87,1.43-3.56,4.86-3.56a10.36,10.36,0,0,1,3.59.62l-.47,2.47a7.61,7.61,0,0,0-3.07-.65C236.08,79.59,235.51,80,235.51,80.76Z"/><path class="cls-1" d="M254.28,89.86l-2.37.42-3.79-12.87h3.82l2.7,10.68h.05l2.74-10.68h3.38l-3.93,13c-1.09,3.66-2.94,5-5.57,5a6.52,6.52,0,0,1-3.58-1.28l1.06-2.31h.32a4.24,4.24,0,0,0,2.36.91c1.35,0,2.24-.94,2.71-2.58Z"/><path class="cls-1" d="M271.26,84.69c0,2,1.14,3.14,3.27,3.14a8.58,8.58,0,0,0,3.75-1.06l.65,2.39a10.49,10.49,0,0,1-4.81,1.25c-3.93,0-6.27-2.45-6.27-6.66,0-3.93,1.9-6.6,6-6.6,3.85,0,5.36,2.86,5.36,6v1.49Zm2.39-5c-1.69,0-2.39,1.54-2.39,3h4.65C275.91,81.05,275.42,79.64,273.65,79.64Z"/><path class="cls-1" d="M281.79,86.77V72.21h3.35V86.58c0,1.07.65,1.23,2.05,1.23V90.2a10.43,10.43,0,0,1-1.87.21C282.72,90.41,281.79,89,281.79,86.77Z"/><path class="cls-1" d="M152.28,110.54h-1.92v6.11H147V99.09h5.33c3.59,0,6.69,1.72,6.69,5.49C159,108,156.42,110.54,152.28,110.54ZM152.2,102h-1.84v5.88h1.84a2.9,2.9,0,0,0,3.15-3.15C155.35,102.92,154.15,102,152.2,102Z"/><path class="cls-1" d="M168.19,116.65l-.46-1.51a4.59,4.59,0,0,1-3.72,1.77,4,4,0,0,1-4.27-4.09c0-2.36,1.75-3.77,4.82-3.77h2.67v-.65c0-1.64-.93-2.15-2.23-2.15a9.17,9.17,0,0,0-3.82.85l-.86-2.42a12.94,12.94,0,0,1,5-1c3.61,0,5.17,1.66,5.17,4.91v8.09Zm-1-5.57h-2.1c-1.41,0-2.06.68-2.06,1.64a1.7,1.7,0,0,0,1.9,1.87,3.74,3.74,0,0,0,2.26-.86Z"/><path class="cls-1" d="M178.18,116.91c-2.26,0-3.74-1.07-3.74-4.27v-6.32h-1.9v-2.41h1.9V101.7l3.35-1.1v3.31h3.4v2.41h-3.4v6.24c0,.89.44,1.46,1.35,1.46a4.59,4.59,0,0,0,2-.47l.52,2.5A7.31,7.31,0,0,1,178.18,116.91Z"/><path class="cls-1" d="M191,106.74a5.65,5.65,0,0,0-1.58-.21,3.66,3.66,0,0,0-2.29.86v9.26h-3.38V103.91h2.36l.37,1.71h.08a3.41,3.41,0,0,1,3-2,6.22,6.22,0,0,1,1.48.18Z"/><path class="cls-1" d="M194.12,116.65v-10.3l-1.49-.31v-2.13h4.87v12.74ZM194,98.71h3.43v3.09H194Z"/><path class="cls-1" d="M211.85,108.77v7.88h-3.43v-7.57c0-1.92-.71-2.83-2.29-2.83A3.79,3.79,0,0,0,204,107v9.62h-3.41V103.91h2.29l.57,1.48a4.78,4.78,0,0,1,3.77-1.74c2.08,0,3.33.62,4,1.79a5,5,0,0,1,3.85-1.79c3.64,0,4.71,1.89,4.71,5.12v7.88h-3.46v-7.57c0-1.92-.81-2.83-2.39-2.83a3.84,3.84,0,0,0-2.16.78A9.41,9.41,0,0,1,211.85,108.77Z"/><path class="cls-1" d="M233.92,110.25c0,4.34-2.18,6.66-6,6.66s-6-2.29-6-6.66c0-3.74,2.08-6.6,6-6.6S233.92,106.51,233.92,110.25Zm-3.48,0c0-3.07-.91-4.13-2.5-4.13s-2.47,1.09-2.47,4.13.81,4.16,2.47,4.16S230.44,113.29,230.44,110.25Z"/><path class="cls-1" d="M244.37,116.65v-7.57c0-1.92-.72-2.83-2.28-2.83a4,4,0,0,0-2.24.78v9.62h-3.41V103.91h2.34l.52,1.45a5.29,5.29,0,0,1,4-1.71c3.23,0,4.5,1.89,4.5,5.12v7.88Z"/><path class="cls-1" d="M251.65,116.65v-10.3l-1.48-.31v-2.13H255v12.74Zm-.1-17.94H255v3.09h-3.43Z"/><path class="cls-1" d="M269.57,110.25c0,4.34-2.19,6.66-6,6.66s-6-2.29-6-6.66c0-3.74,2.08-6.6,6-6.6S269.57,106.51,269.57,110.25Zm-3.49,0c0-3.07-.91-4.13-2.49-4.13s-2.47,1.09-2.47,4.13.8,4.16,2.47,4.16S266.08,113.29,266.08,110.25Z"/></g></g></svg>