<svg width="184" height="80" viewBox="0 0 184 80" fill="none" xmlns="http://www.w3.org/2000/svg">
<path d="M1.38464 66.8625H2.62553L3.57854 71.9802H2.66276L2.49648 70.964V70.9786H1.45165L1.28785 71.9802H0.431641L1.38464 66.8625ZM2.37735 70.2743L1.96786 67.7447H1.95049L1.56085 70.2743H2.37735Z" fill="#E6005C"/>
<path d="M4.51465 66.8625H5.87714C6.83015 66.8625 7.23964 67.25 7.23964 68.0396V68.354C7.23964 68.8804 7.04606 69.2167 6.63657 69.3629V69.3775C7.09818 69.5018 7.24709 69.882 7.24709 70.4595V71.3588C7.22971 71.5709 7.26461 71.7841 7.34884 71.9802H6.39832C6.32364 71.7792 6.29566 71.5644 6.31642 71.3515V70.4157C6.31642 69.9404 6.15759 69.7869 5.73816 69.7869H5.4205V71.9802H4.51465V66.8625ZM5.75554 69.0558C6.09802 69.0558 6.30649 68.9242 6.30649 68.5148V68.12C6.30649 67.7545 6.16503 67.5936 5.83992 67.5936H5.4205V69.0558H5.75554Z" fill="#E6005C"/>
<path d="M9.04789 67.5936H8.08496V66.8625H10.9266V67.5936H9.97359V71.9802H9.05534L9.04789 67.5936Z" fill="#E6005C"/>
<path d="M11.8477 66.8625H14.3542V67.5936H12.7659V68.9462H14.0291V69.6773H12.7659V71.2491H14.3542V71.9802H11.8477V66.8625Z" fill="#E6005C"/>
<path d="M15.2158 70.7496V70.4571H16.0844V70.8081C16.0844 71.1736 16.2681 71.2955 16.5609 71.2955C16.8538 71.2955 17.0374 71.1639 17.0374 70.7837C17.0374 70.3597 16.8538 70.0892 16.2507 69.6286C15.4814 69.0364 15.2307 68.6197 15.2307 68.0348C15.2307 67.2306 15.7072 66.7627 16.6031 66.7627C17.4991 66.7627 17.9383 67.2306 17.9383 68.0494V68.2614H17.0697V67.9982C17.0697 67.6327 16.9034 67.4938 16.6106 67.4938C16.3177 67.4938 16.1515 67.6327 16.1515 67.9812C16.1515 68.3297 16.3425 68.6245 16.9456 69.0851C17.715 69.6773 17.9557 70.0867 17.9557 70.7228C17.9557 71.5562 17.4718 72.0241 16.5684 72.0241C15.665 72.0241 15.2158 71.566 15.2158 70.7496Z" fill="#E6005C"/>
<path d="M20.5293 66.8625H21.4575L22.0581 70.8324H22.0754L22.6785 66.8625H23.5223L22.6314 71.9802H21.4153L20.5293 66.8625Z" fill="#E6005C"/>
<path d="M24.4414 66.8625H25.3621V71.9802H24.4439L24.4414 66.8625Z" fill="#E6005C"/>
<path d="M26.3545 70.7496V70.4571H27.2256V70.8081C27.2256 71.1736 27.4092 71.2955 27.7021 71.2955C27.9949 71.2955 28.1786 71.1639 28.1786 70.7837C28.1786 70.3597 27.9925 70.0892 27.3919 69.6286C26.6225 69.0364 26.3719 68.6197 26.3719 68.0348C26.3719 67.2306 26.8484 66.7627 27.7418 66.7627C28.6352 66.7627 29.0845 67.2379 29.0845 68.0689V68.2809H28.2158V68.0177C28.2158 67.6522 28.0495 67.5133 27.7567 67.5133C27.4638 67.5133 27.2976 67.6522 27.2976 68.0007C27.2976 68.3492 27.4887 68.644 28.0893 69.1046C28.8586 69.6968 29.1018 70.1062 29.1018 70.7423C29.1018 71.5757 28.6055 72.0436 27.7145 72.0436C26.8235 72.0436 26.3545 71.566 26.3545 70.7496Z" fill="#E6005C"/>
<path d="M30.0762 70.7617V66.8625H30.9969V70.8251C30.9969 71.1906 31.1706 71.3125 31.4635 71.3125C31.7563 71.3125 31.9325 71.1809 31.9325 70.8251V66.8625H32.8061V70.7617C32.8061 71.5805 32.3371 72.0484 31.4362 72.0484C30.5353 72.0484 30.0762 71.5781 30.0762 70.7617Z" fill="#E6005C"/>
<path d="M34.6364 66.8625H35.8773L36.8303 71.9802H35.9096L35.7433 70.964V70.9786H34.6985L34.5446 71.9802H33.6934L34.6364 66.8625ZM35.6291 70.2743L35.2197 67.7447H35.2023L34.8126 70.2743H35.6291Z" fill="#E6005C"/>
<path d="M37.752 66.8625H38.6702V71.2491H40.184V71.9802H37.752V66.8625Z" fill="#E6005C"/>
<path d="M41.1025 66.8625H43.6091V67.5936H42.0208V68.9462H43.284V69.6773H42.0208V71.2491H43.6091V71.9802H41.1025V66.8625Z" fill="#E6005C"/>
<path d="M44.4697 70.7496V70.4571H45.3383V70.8081C45.3383 71.1736 45.522 71.2955 45.8149 71.2955C46.1077 71.2955 46.2914 71.1639 46.2914 70.7837C46.2914 70.3597 46.1077 70.0892 45.5071 69.6286C44.7378 69.0364 44.4871 68.6197 44.4871 68.0348C44.4871 67.2306 44.9636 66.7627 45.857 66.7627C46.7505 66.7627 47.1997 67.2379 47.1997 68.0689V68.2809H46.3311V68.0177C46.3311 67.6522 46.1623 67.5133 45.8695 67.5133C45.5766 67.5133 45.4103 67.6522 45.4103 68.0007C45.4103 68.3492 45.6039 68.644 46.2045 69.1046C46.9738 69.6968 47.2171 70.1062 47.2171 70.7423C47.2171 71.5757 46.7207 72.0436 45.8297 72.0436C44.9388 72.0436 44.4697 71.566 44.4697 70.7496Z" fill="#E6005C"/>
<path d="M0.675781 74.5303H3.18238V75.2614H1.59404V76.6139H2.85726V77.345H1.59404V78.9144H3.18238V79.6455H0.675781V74.5303Z" fill="#E6005C"/>
<path d="M4.04297 78.4371V78.1447H4.91159V78.4956C4.91159 78.8611 5.09524 78.983 5.38809 78.983C5.68094 78.983 5.86459 78.8514 5.86459 78.4712C5.86459 78.0472 5.68094 77.7767 5.07787 77.3161C4.30852 76.7239 4.05786 76.3072 4.05786 75.7247C4.05786 74.9205 4.53436 74.4526 5.43028 74.4526C6.3262 74.4526 6.76796 74.9205 6.76796 75.7369V75.9489H5.89686V75.6857C5.89686 75.3202 5.73058 75.1837 5.43773 75.1837C5.14488 75.1837 4.9786 75.3202 4.9786 75.6711C4.9786 76.0221 5.1697 76.3121 5.77277 76.7726C6.54212 77.3648 6.78285 77.7742 6.78285 78.4103C6.78285 79.2437 6.2865 79.7116 5.39554 79.7116C4.50458 79.7116 4.04297 79.2559 4.04297 78.4371Z" fill="#E6005C"/>
<path d="M8.50537 75.2614H7.54492V74.5303H10.3866V75.2614H9.42363V79.6479H8.50537V75.2614Z" fill="#E6005C"/>
<path d="M11.3057 74.5303H12.6682C13.6212 74.5303 14.0307 74.9177 14.0307 75.7073V76.0217C14.0307 76.5456 13.8371 76.8819 13.4276 77.0306V77.0428C13.8867 77.1671 14.0381 77.5472 14.0381 78.1248V79.0362C14.0213 79.2481 14.0553 79.461 14.1374 79.6576H13.2017C13.1271 79.4567 13.0991 79.2419 13.1198 79.0289V78.0931C13.1198 77.6179 12.961 77.4644 12.5416 77.4644H12.2239V79.6576H11.3057V74.5303ZM12.5466 76.7235C12.889 76.7235 13.0975 76.5944 13.0975 76.1825V75.7877C13.0975 75.4246 12.956 75.2638 12.6309 75.2638H12.2115V76.726L12.5466 76.7235Z" fill="#E6005C"/>
<path d="M15.1484 74.5303H17.6674V75.2614H16.0791V76.6139H17.3423V77.345H16.0791V78.9144H17.6674V79.6455H15.1608L15.1484 74.5303Z" fill="#E6005C"/>
<path d="M18.5996 78.4566V75.7077C18.5996 74.9205 19.0687 74.4526 19.9547 74.4526C20.8407 74.4526 21.3072 74.9205 21.3072 75.7077V76.2487H20.4386V75.6565C20.4386 75.5973 20.4267 75.5387 20.4037 75.484C20.3806 75.4293 20.3468 75.3796 20.3041 75.3377C20.2615 75.2959 20.2109 75.2626 20.1552 75.24C20.0995 75.2173 20.0398 75.2057 19.9795 75.2057C19.9192 75.2057 19.8595 75.2173 19.8038 75.24C19.7481 75.2626 19.6975 75.2959 19.6548 75.3377C19.6122 75.3796 19.5784 75.4293 19.5553 75.484C19.5322 75.5387 19.5204 75.5973 19.5204 75.6565V78.5151C19.5204 78.5743 19.5322 78.6329 19.5553 78.6876C19.5784 78.7423 19.6122 78.792 19.6548 78.8339C19.6975 78.8757 19.7481 78.9089 19.8038 78.9316C19.8595 78.9543 19.9192 78.9659 19.9795 78.9659C20.0398 78.9659 20.0995 78.9543 20.1552 78.9316C20.2109 78.9089 20.2615 78.8757 20.3041 78.8339C20.3468 78.792 20.3806 78.7423 20.4037 78.6876C20.4267 78.6329 20.4386 78.5743 20.4386 78.5151V77.7328H21.3072V78.4639C21.3072 79.2535 20.8407 79.7214 19.9547 79.7214C19.0687 79.7214 18.5996 79.2462 18.5996 78.4566Z" fill="#E6005C"/>
<path d="M22.333 74.5303H23.2537V76.6139H24.2465V74.5303H25.1672V79.6479H24.2465V77.3474H23.2537V79.6479H22.333V74.5303Z" fill="#E6005C"/>
<path d="M26.2559 78.4286V75.7479C26.2559 74.9315 26.7522 74.4636 27.6506 74.4636C28.549 74.4636 29.0454 74.9315 29.0454 75.7479V78.4286C29.0454 79.2474 28.549 79.7153 27.6506 79.7153C26.7522 79.7153 26.2559 79.2474 26.2559 78.4286ZM28.1271 78.4798V75.687C28.1271 75.3214 27.9435 75.185 27.6506 75.185C27.3578 75.185 27.1741 75.3214 27.1741 75.687V78.4798C27.1741 78.8453 27.3578 78.9842 27.6506 78.9842C27.9435 78.9842 28.1271 78.8453 28.1271 78.4798Z" fill="#E6005C"/>
<path d="M31.9521 74.5303H33.3568C34.2751 74.5303 34.7268 74.9762 34.7268 75.7926V78.3807C34.7268 79.1995 34.2751 79.6455 33.3568 79.6455H31.9521V74.5303ZM33.3395 78.9168C33.6323 78.9168 33.8085 78.7852 33.8085 78.4294V75.7585C33.8085 75.393 33.6323 75.2711 33.3395 75.2711H32.8704V78.9266L33.3395 78.9168Z" fill="#E6005C"/>
<path d="M35.8223 74.5303H38.3289V75.2614H36.7405V76.6139H38.0038V77.345H36.7405V78.9144H38.3289V79.6455H35.8223V74.5303Z" fill="#E6005C"/>
<path d="M41.1445 74.5303H42.4574L43.0406 78.1857H43.058L43.6437 74.5303H44.9665V79.6479H44.0954V75.7707H44.078L43.4104 79.6455H42.641L41.9734 75.7707H41.9561V79.6455H41.1445V74.5303Z" fill="#E6005C"/>
<path d="M46.8295 74.5303H48.0704L49.0234 79.6479H48.1052L47.9364 78.6317V78.6463H46.894L46.7253 79.6479H45.874L46.8295 74.5303ZM47.8222 77.942L47.4127 75.4149H47.3954L46.9933 77.942H47.8222Z" fill="#E6005C"/>
<path d="M49.8623 78.4286V75.7479C49.8623 74.9315 50.3289 74.4636 51.2322 74.4636C52.1356 74.4636 52.6022 74.9315 52.6022 75.7479V76.1866H51.7336V75.6992C51.7336 75.3336 51.5499 75.1972 51.2571 75.1972C50.9642 75.1972 50.7806 75.3336 50.7806 75.6992V78.4992C50.7806 78.8648 50.9642 78.9866 51.2571 78.9866C51.5499 78.9866 51.7336 78.855 51.7336 78.4992V77.4976H51.2744V76.7666H52.6022V78.4408C52.6022 79.2596 52.1356 79.7275 51.2322 79.7275C50.3289 79.7275 49.8623 79.2474 49.8623 78.4286Z" fill="#E6005C"/>
<path d="M54.3802 74.5303H55.6211L56.5741 79.6479H55.6558L55.4871 78.6317V78.6463H54.4472L54.2809 79.6479H53.4297L54.3802 74.5303ZM55.3853 77.942L54.9758 75.4149H54.9585L54.5564 77.942H55.3853Z" fill="#E6005C"/>
<path d="M57.499 74.5303H58.4198V78.9168H59.9312V79.6479H57.499V74.5303Z" fill="#E6005C"/>
<path d="M60.8525 74.5303H61.7708V78.9168H63.2847V79.6479H60.8525V74.5303Z" fill="#E6005C"/>
<path d="M64.9457 74.5303H66.1866L67.1396 79.6479H66.2214L66.0526 78.6317V78.6463H65.0078L64.8415 79.6479H63.9902L64.9457 74.5303ZM65.9384 77.942L65.5289 75.4149H65.5116L65.1095 77.942H65.9384Z" fill="#E6005C"/>
<path d="M68.0596 74.5303H69.2136L70.107 77.5911H70.1244V74.5303H70.9434V79.6479H70.0003L68.8959 75.9145H68.8786V79.6455H68.0596V74.5303Z" fill="#E6005C"/>
<path d="M72.1064 74.5303H74.613V75.2614H73.0247V76.6139H74.2879V77.345H73.0247V78.9144H74.613V79.6455H72.1064V74.5303Z" fill="#E6005C"/>
<path d="M75.4736 78.4371V78.1447H76.3423V78.4956C76.3423 78.8611 76.5259 78.983 76.8187 78.983C77.1116 78.983 77.2953 78.8514 77.2953 78.4712C77.2953 78.0472 77.1116 77.7767 76.511 77.3161C75.7417 76.7239 75.491 76.3072 75.491 75.7247C75.491 74.9205 75.9675 74.4526 76.8609 74.4526C77.7544 74.4526 78.1986 74.9205 78.1986 75.7369V75.9489H77.33V75.6857C77.33 75.3202 77.1612 75.1837 76.8684 75.1837C76.5755 75.1837 76.4093 75.3202 76.4093 75.6711C76.4093 76.0221 76.6028 76.3121 77.2034 76.7726C77.9728 77.3648 78.216 77.7742 78.216 78.4103C78.216 79.2437 77.7196 79.7116 76.8287 79.7116C75.9377 79.7116 75.4736 79.2559 75.4736 78.4371Z" fill="#E6005C"/>
<path d="M0.333008 30.8245H7.50535L13.0695 48.0343H13.1737V30.8245H18.2688V59.5734H12.3945L5.52985 38.5862H5.4281V59.5734H0.333008V30.8245Z" fill="#E6005C"/>
<path d="M28.2502 30.8245H22.5322V59.5734H28.2502V30.8245Z" fill="#E6005C"/>
<path d="M32.5137 30.8245H40.6762L44.3145 51.4022H44.4188L48.0571 30.8245H56.2221V59.5734H50.8143V37.8064H50.7101L46.5506 59.5734H41.7657L37.6088 37.8064H37.5045V59.5734H32.5137V30.8245Z" fill="#E6005C"/>
<path d="M60.4844 30.8245H69.116C75.0425 30.8245 77.5888 33.0007 77.5888 37.436V38.5862C77.5888 41.5447 76.4472 43.3919 73.8984 44.2132V44.2961C76.9659 45.1173 78.1621 47.2545 78.1621 50.2935V52.7572C78.1621 57.1925 75.1988 59.5808 69.4759 59.5808H60.4844V30.8245ZM68.4385 42.5219C70.5728 42.5219 71.8708 41.7908 71.8708 39.483V37.8795C71.8708 35.8276 70.9873 34.9235 68.9597 34.9235H66.2049V42.5219H68.4385ZM69.4783 55.4598C71.4017 55.4598 72.4441 54.7604 72.4441 52.6256V50.1277C72.4441 47.4471 71.3496 46.6356 68.7512 46.6356H66.2049V55.4671L69.4783 55.4598Z" fill="#E6005C"/>
<path d="M81.2822 52.7572V30.8245H86.4741V53.0862C86.4741 55.1381 87.4668 55.8789 89.1172 55.8789C90.7676 55.8789 91.7603 55.1478 91.7603 53.0862V30.8245H96.766V52.7572C96.766 57.3557 94.123 59.9852 89.0229 59.9852C83.9228 59.9852 81.2822 57.3509 81.2822 52.7572Z" fill="#E6005C"/>
<path d="M99.4541 52.4442V50.8017H104.264V52.7732C104.264 54.8252 105.281 55.566 106.899 55.566C108.518 55.566 109.538 54.8349 109.538 52.6904C109.538 50.307 108.518 48.7912 105.189 46.2031C100.936 42.8742 99.5484 40.5323 99.5484 37.2473C99.5484 32.7291 102.184 30.1021 107.133 30.1021C112.081 30.1021 114.531 32.7291 114.531 37.3301V38.5218H109.721V37.0426C109.721 34.9906 108.798 34.2084 107.177 34.2084C105.557 34.2084 104.634 34.9906 104.634 36.9597C104.634 39.0555 105.698 40.5737 109.029 43.1618C113.283 46.4883 114.625 48.7888 114.625 52.3638C114.625 57.0452 111.942 59.6747 106.947 59.6747C101.951 59.6747 99.4541 57.0477 99.4541 52.4467" fill="#E6005C"/>
<path d="M160.99 39.3883V39.4395C161.24 39.1227 161.482 38.7977 161.717 38.4647C162.935 36.7505 163.924 34.8907 164.661 32.9303L164.611 32.9644C165.622 30.2776 166.138 27.4357 166.135 24.5715C166.124 22.7962 165.434 21.0897 164.202 19.7903C162.97 18.4908 161.286 17.6931 159.483 17.5551C157.681 17.4172 155.891 17.9491 154.469 19.0454C153.047 20.1418 152.096 21.7227 151.805 23.4749H153.542C153.824 22.1666 154.589 21.0069 155.689 20.2195C156.79 19.4321 158.149 19.0726 159.503 19.2103C160.858 19.348 162.112 19.9732 163.025 20.9654C163.938 21.9576 164.445 23.2465 164.447 24.5837C164.453 30.4895 162.107 36.1635 157.909 40.3931C153.712 44.6228 147.996 47.0728 141.984 47.2195C135.971 47.3662 130.139 45.198 125.732 41.1782C121.326 37.1585 118.696 31.606 118.403 25.7071H116.69C116.924 30.677 118.707 35.4564 121.798 39.3986C124.889 43.3408 129.139 46.2554 133.972 47.748C138.805 49.2407 143.989 49.2394 148.821 47.7442C153.653 46.249 157.901 43.3321 160.99 39.3883Z" fill="#E6005C"/>
<path d="M122.787 25.7126H121.077C121.341 30.8309 123.598 35.654 127.38 39.1849C131.163 42.7159 136.183 44.6848 141.402 44.6848C146.621 44.6848 151.64 42.7159 155.423 39.1849C159.206 35.654 161.462 30.8309 161.726 25.7126H160.016C159.717 30.3603 157.625 34.7213 154.168 37.9086C150.71 41.0958 146.145 42.8699 141.403 42.8699C136.66 42.8699 132.096 41.0958 128.638 37.9086C125.18 34.7213 123.089 30.3603 122.79 25.7126" fill="#E6005C"/>
<path d="M141.401 38.7578C137.772 38.7553 134.276 37.4122 131.609 34.9953C128.942 32.5784 127.299 29.2646 127.006 25.7126H125.299C125.576 29.7183 127.393 33.471 130.38 36.212C133.368 38.9529 137.304 40.4775 141.393 40.4775C145.482 40.4775 149.418 38.9529 152.406 36.212C155.394 33.471 157.21 29.7183 157.488 25.7126H155.778C155.484 29.2644 153.841 32.5778 151.174 34.9946C148.507 37.4114 145.012 38.7548 141.383 38.7578" fill="#E6005C"/>
<path d="M141.398 36.3451C144.374 36.3412 147.242 35.2506 149.443 33.2853C151.645 31.3201 153.024 28.6208 153.311 25.7126H151.596C151.316 28.1764 150.121 30.4524 148.239 32.1054C146.358 33.7583 143.922 34.6721 141.397 34.6721C138.873 34.6721 136.436 33.7583 134.555 32.1054C132.673 30.4524 131.478 28.1764 131.198 25.7126H129.483C129.771 28.6208 131.149 31.3201 133.351 33.2853C135.553 35.2506 138.42 36.3412 141.396 36.3451" fill="#E6005C"/>
<path d="M136.012 25.7126H134.274C134.532 27.3852 135.391 28.9117 136.697 30.0149C138.003 31.1181 139.668 31.7248 141.391 31.7248C143.114 31.7248 144.779 31.1181 146.085 30.0149C147.391 28.9117 148.25 27.3852 148.507 25.7126H146.77C146.508 26.9251 145.829 28.0123 144.848 28.7923C143.867 29.5724 142.643 29.998 141.381 29.998C140.119 29.998 138.895 29.5724 137.914 28.7923C136.933 28.0123 136.254 26.9251 135.992 25.7126" fill="#E6005C"/>
<path d="M158.926 0.275879C152.56 0.283642 146.441 2.69825 141.839 7.01859C137.237 11.3389 134.506 17.2332 134.213 23.4783H135.918C136.136 18.8756 137.777 14.4474 140.622 10.7833C143.467 7.11922 147.382 4.393 151.844 2.96764C156.306 1.54227 161.105 1.48539 165.6 2.80456C170.096 4.12373 174.077 6.75637 177.011 10.352C179.945 13.9476 181.695 18.3356 182.026 22.9317C182.357 27.5279 181.255 32.1141 178.866 36.0799C176.477 40.0457 172.915 43.2028 168.653 45.131C164.391 47.0591 159.632 47.6668 155.01 46.8732C154.256 47.3181 153.479 47.7248 152.682 48.0917C156.084 48.9617 159.635 49.1103 163.099 48.5274C166.564 47.9445 169.862 46.6436 172.774 44.7113C175.687 42.7789 178.147 40.2596 179.99 37.3208C181.833 34.3821 183.018 31.0915 183.465 27.6681C183.912 24.2446 183.611 20.767 182.583 17.4666C181.554 14.1662 179.821 11.1189 177.5 8.52752C175.178 5.93611 172.321 3.86011 169.118 2.43771C165.916 1.01532 162.441 0.279185 158.926 0.278316" fill="#E6005C"/>
<path d="M158.926 44.0361V44.5649C162.903 44.5637 166.792 43.4184 170.113 41.2706C173.434 39.1228 176.042 36.0666 177.614 32.4796C179.185 28.8926 179.652 24.9321 178.957 21.0873C178.262 17.2426 176.434 13.6822 173.701 10.846C170.967 8.00985 167.448 6.02223 163.576 5.12876C159.705 4.23529 155.652 4.47512 151.918 5.81862C148.184 7.16212 144.933 9.55041 142.566 12.6884C140.199 15.8264 138.821 19.5765 138.601 23.4754H140.311C140.527 19.9608 141.771 16.5819 143.893 13.7437C146.015 10.9054 148.925 8.72795 152.276 7.47221C155.626 6.21646 159.273 5.93563 162.782 6.66334C166.29 7.39106 169.51 9.09647 172.057 11.5753C174.604 14.0541 176.369 17.2013 177.14 20.6399C177.912 24.0784 177.658 27.6625 176.409 30.9629C175.159 34.2634 172.968 37.1401 170.096 39.2487C167.224 41.3573 163.794 42.6082 160.217 42.8517C159.8 43.2628 159.37 43.6608 158.926 44.0458" fill="#E6005C"/>
<path d="M162.709 39.9928C165.606 39.3059 168.252 37.8445 170.354 35.7709C172.457 33.6973 173.933 31.0923 174.619 28.245C175.306 25.3978 175.176 22.4194 174.244 19.6402C173.312 16.861 171.614 14.3896 169.339 12.5002C167.063 10.6107 164.3 9.37704 161.354 8.93593C158.408 8.49481 155.395 8.86351 152.65 10.0011C149.905 11.1388 147.534 13.0009 145.8 15.3809C144.067 17.761 143.039 20.5659 142.83 23.4848H144.54C144.74 20.962 145.624 18.5378 147.101 16.464C148.577 14.3902 150.593 12.7425 152.937 11.6921C155.281 10.6416 157.87 10.2267 160.432 10.4905C162.995 10.7542 165.44 11.687 167.511 13.192C169.583 14.6969 171.206 16.7191 172.213 19.0485C173.22 21.3778 173.573 23.9294 173.236 26.438C172.899 28.9467 171.883 31.321 170.296 33.3142C168.708 35.3074 166.606 36.8469 164.208 37.7727C163.752 38.5411 163.255 39.2854 162.719 40.0025" fill="#E6005C"/>
<path d="M166.062 34.0216C167.665 32.8542 168.946 31.3116 169.788 29.5341C170.629 27.7567 171.005 25.8008 170.88 23.8445C170.756 21.8881 170.135 19.9934 169.075 18.3328C168.014 16.6721 166.548 15.2981 164.809 14.3359C163.069 13.3737 161.113 12.8538 159.117 12.8234C157.121 12.7931 155.149 13.2533 153.38 14.1622C151.612 15.0711 150.103 16.3998 148.99 18.0275C147.878 19.6551 147.198 21.5301 147.012 23.4817H148.724C148.897 21.9415 149.429 20.4613 150.279 19.1559C151.13 17.8506 152.275 16.7552 153.626 15.955C154.977 15.1548 156.498 14.6713 158.071 14.542C159.643 14.4127 161.225 14.6412 162.693 15.2096C164.161 15.778 165.475 16.6711 166.535 17.8195C167.594 18.9679 168.369 20.3406 168.801 21.831C169.232 23.3215 169.308 24.8895 169.022 26.4133C168.736 27.9371 168.096 29.3756 167.151 30.6171C166.868 31.7775 166.504 32.9174 166.062 34.0289" fill="#E6005C"/>
<path d="M106.608 6.25444C111.357 6.26106 115.925 8.04406 119.383 11.2407C122.84 14.4373 124.928 18.8074 125.221 23.4619H126.931C126.673 18.3391 124.419 13.5098 120.635 9.97365C116.852 6.43752 111.828 4.46533 106.605 4.46533C101.382 4.46533 96.3583 6.43752 92.5748 9.97365C88.7912 13.5098 86.5372 18.3391 86.2793 23.4619H87.9892C88.2815 18.8072 90.369 14.4368 93.8269 11.24C97.2848 8.04328 101.853 6.26048 106.603 6.25444" fill="#E6005C"/>
<path d="M106.606 10.4136C110.238 10.4165 113.736 11.7623 116.404 14.1833C119.071 16.6042 120.712 19.9228 121 23.4782H122.71C122.442 19.4656 120.629 15.7036 117.64 12.955C114.65 10.2064 110.709 8.677 106.613 8.677C102.518 8.677 98.5764 10.2064 95.5872 12.955C92.598 15.7036 90.7852 19.4656 90.5166 23.4782H92.2265C92.5147 19.9228 94.1559 16.6042 96.8232 14.1833C99.4906 11.7623 102.989 10.4165 106.621 10.4136" fill="#E6005C"/>
<path d="M106.392 1.95158C112.307 1.95883 117.993 4.197 122.275 8.20357C126.557 12.2101 129.108 17.6789 129.401 23.4798H131.106C130.821 17.2318 128.092 11.3326 123.489 7.01037C118.885 2.68811 112.762 0.275879 106.392 0.275879C100.023 0.275879 93.8992 2.68811 89.2958 7.01037C84.6923 11.3326 81.9639 17.2318 81.6787 23.4798H83.3837C83.6789 17.6806 86.231 12.2143 90.5128 8.20978C94.7946 4.20527 100.479 1.96845 106.392 1.96132" fill="#E6005C"/>
<path d="M106.392 12.822C103.413 12.8264 100.543 13.9198 98.3409 15.8891C96.1386 17.8583 94.762 20.5624 94.4795 23.474H96.1919C96.4694 21.0074 97.6638 18.728 99.5463 17.0724C101.429 15.4167 103.867 14.5013 106.395 14.5013C108.922 14.5013 111.36 15.4167 113.243 17.0724C115.125 18.728 116.32 21.0074 116.597 23.474H118.31C118.027 20.5624 116.651 17.8583 114.448 15.8891C112.246 13.9198 109.376 12.8264 106.397 12.822" fill="#E6005C"/>
</svg>
