<svg width="24" height="24" viewBox="0 0 24 24" fill="none" xmlns="http://www.w3.org/2000/svg">
<path d="M16.2823 7.5C15.5806 3.31406 13.9258 0.375 12 0.375C10.0742 0.375 8.41935 3.31406 7.71774 7.5H16.2823ZM7.35484 12C7.35484 13.0406 7.4129 14.0391 7.51452 15H16.4806C16.5823 14.0391 16.6403 13.0406 16.6403 12C16.6403 10.9594 16.5823 9.96094 16.4806 9H7.51452C7.4129 9.96094 7.35484 10.9594 7.35484 12ZM23.0661 7.5C21.6823 4.31719 18.8806 1.85625 15.421 0.8625C16.6016 2.44687 17.4145 4.83281 17.8403 7.5H23.0661ZM8.57419 0.8625C5.11935 1.85625 2.3129 4.31719 0.933871 7.5H6.15968C6.58065 4.83281 7.39355 2.44687 8.57419 0.8625ZM23.5839 9H18.0339C18.1355 9.98438 18.1935 10.9922 18.1935 12C18.1935 13.0078 18.1355 14.0156 18.0339 15H23.579C23.8452 14.0391 23.9952 13.0406 23.9952 12C23.9952 10.9594 23.8452 9.96094 23.5839 9ZM5.80645 12C5.80645 10.9922 5.86452 9.98438 5.96613 9H0.416129C0.154839 9.96094 0 10.9594 0 12C0 13.0406 0.154839 14.0391 0.416129 15H5.96129C5.86452 14.0156 5.80645 13.0078 5.80645 12ZM7.71774 16.5C8.41935 20.6859 10.0742 23.625 12 23.625C13.9258 23.625 15.5806 20.6859 16.2823 16.5H7.71774ZM15.4258 23.1375C18.8806 22.1438 21.6871 19.6828 23.071 16.5H17.8452C17.4194 19.1672 16.6065 21.5531 15.4258 23.1375ZM0.933871 16.5C2.31774 19.6828 5.11935 22.1438 8.57903 23.1375C7.39839 21.5531 6.58548 19.1672 6.15968 16.5H0.933871Z" fill="white"/>
</svg>
