<svg width="92" height="41" viewBox="0 0 92 41" fill="none" xmlns="http://www.w3.org/2000/svg">
<path d="M0.69223 33.6909H1.31268L1.78918 36.2675H1.33129L1.24815 35.7559V35.7632H0.725735L0.643835 36.2675H0.215729L0.69223 33.6909ZM1.18859 35.4086L0.983839 34.1351H0.975153L0.780333 35.4086H1.18859Z" fill="#E6005C"/>
<path d="M2.25763 33.6909H2.93888C3.41538 33.6909 3.62013 33.886 3.62013 34.2835V34.4418C3.62013 34.7068 3.52334 34.8762 3.31859 34.9498V34.9571C3.54939 35.0197 3.62385 35.2111 3.62385 35.5019V35.9546C3.61516 36.0615 3.63261 36.1688 3.67472 36.2675H3.19946C3.16213 36.1663 3.14814 36.0582 3.15851 35.951V35.4798C3.15851 35.2406 3.0791 35.1633 2.86939 35.1633H2.71055V36.2675H2.25763V33.6909ZM2.87807 34.7952C3.04932 34.7952 3.15355 34.7289 3.15355 34.5228V34.324C3.15355 34.14 3.08282 34.059 2.92026 34.059H2.71055V34.7952H2.87807Z" fill="#E6005C"/>
<path d="M4.52391 34.059H4.04245V33.6909H5.46327V34.059H4.98677V36.2675H4.52764L4.52391 34.059Z" fill="#E6005C"/>
<path d="M5.92422 33.6909H7.17751V34.059H6.38335V34.74H7.01496V35.108H6.38335V35.8994H7.17751V36.2675H5.92422V33.6909Z" fill="#E6005C"/>
<path d="M7.608 35.6484V35.5012H8.04231V35.6778C8.04231 35.8619 8.13414 35.9232 8.28056 35.9232C8.42699 35.9232 8.51882 35.857 8.51882 35.6656C8.51882 35.4521 8.42699 35.3159 8.12545 35.084C7.74078 34.7859 7.61545 34.576 7.61545 34.2816C7.61545 33.8767 7.8537 33.6411 8.30166 33.6411C8.74962 33.6411 8.96926 33.8767 8.96926 34.2889V34.3957H8.53495V34.2632C8.53495 34.0791 8.45181 34.0092 8.30538 34.0092C8.15896 34.0092 8.07582 34.0791 8.07582 34.2546C8.07582 34.43 8.17137 34.5785 8.4729 34.8104C8.85758 35.1085 8.97795 35.3147 8.97795 35.6349C8.97795 36.0545 8.73597 36.2901 8.28429 36.2901C7.8326 36.2901 7.608 36.0594 7.608 35.6484Z" fill="#E6005C"/>
<path d="M10.2649 33.6909H10.729L11.0293 35.6896H11.038L11.3395 33.6909H11.7614L11.316 36.2675H10.7079L10.2649 33.6909Z" fill="#E6005C"/>
<path d="M12.2211 33.6909H12.6814V36.2675H12.2223L12.2211 33.6909Z" fill="#E6005C"/>
<path d="M13.1774 35.6484V35.5012H13.613V35.6778C13.613 35.8619 13.7048 35.9232 13.8512 35.9232C13.9977 35.9232 14.0895 35.857 14.0895 35.6656C14.0895 35.4521 13.9964 35.3159 13.6961 35.084C13.3114 34.7859 13.1861 34.576 13.1861 34.2816C13.1861 33.8767 13.4244 33.6411 13.8711 33.6411C14.3178 33.6411 14.5424 33.8804 14.5424 34.2988V34.4055H14.1081V34.273C14.1081 34.0889 14.025 34.019 13.8785 34.019C13.7321 34.019 13.649 34.0889 13.649 34.2644C13.649 34.4399 13.7445 34.5883 14.0448 34.8202C14.4295 35.1184 14.5511 35.3245 14.5511 35.6447C14.5511 36.0643 14.3029 36.2999 13.8574 36.2999C13.412 36.2999 13.1774 36.0594 13.1774 35.6484Z" fill="#E6005C"/>
<path d="M15.0381 35.654V33.6909H15.4985V35.6859C15.4985 35.87 15.5854 35.9313 15.7318 35.9313C15.8782 35.9313 15.9663 35.8651 15.9663 35.6859V33.6909H16.4031V35.654C16.4031 36.0663 16.1686 36.3019 15.7182 36.3019C15.2677 36.3019 15.0381 36.0651 15.0381 35.654Z" fill="#E6005C"/>
<path d="M17.3184 33.6909H17.9389L18.4154 36.2675H17.955L17.8719 35.7559V35.7632H17.3495L17.2725 36.2675H16.8469L17.3184 33.6909ZM17.8148 35.4086L17.61 34.1351H17.6014L17.4065 35.4086H17.8148Z" fill="#E6005C"/>
<path d="M18.8761 33.6909H19.3352V35.8994H20.0921V36.2675H18.8761V33.6909Z" fill="#E6005C"/>
<path d="M20.5514 33.6909H21.8047V34.059H21.0106V34.74H21.6422V35.108H21.0106V35.8994H21.8047V36.2675H20.5514V33.6909Z" fill="#E6005C"/>
<path d="M22.2352 35.6484V35.5012H22.6695V35.6778C22.6695 35.8619 22.7614 35.9232 22.9078 35.9232C23.0542 35.9232 23.146 35.857 23.146 35.6656C23.146 35.4521 23.0542 35.3159 22.7539 35.084C22.3692 34.7859 22.2439 34.576 22.2439 34.2816C22.2439 33.8767 22.4822 33.6411 22.9289 33.6411C23.3756 33.6411 23.6002 33.8804 23.6002 34.2988V34.4055H23.1659V34.273C23.1659 34.0889 23.0815 34.019 22.9351 34.019C22.7887 34.019 22.7055 34.0889 22.7055 34.2644C22.7055 34.4399 22.8023 34.5883 23.1026 34.8202C23.4873 35.1184 23.6089 35.3245 23.6089 35.6447C23.6089 36.0643 23.3607 36.2999 22.9152 36.2999C22.4698 36.2999 22.2352 36.0594 22.2352 35.6484Z" fill="#E6005C"/>
<path d="M0.337952 37.552H1.59125V37.9201H0.797081V38.601H1.42869V38.9691H0.797081V39.7593H1.59125V40.1274H0.337952V37.552Z" fill="#E6005C"/>
<path d="M2.02161 39.5192V39.372H2.45592V39.5487C2.45592 39.7327 2.54774 39.7941 2.69417 39.7941C2.84059 39.7941 2.93242 39.7278 2.93242 39.5364C2.93242 39.3229 2.84059 39.1867 2.53906 38.9549C2.15438 38.6567 2.02905 38.4469 2.02905 38.1537C2.02905 37.7488 2.2673 37.5132 2.71526 37.5132C3.16323 37.5132 3.3841 37.7488 3.3841 38.1598V38.2665H2.94855V38.134C2.94855 37.95 2.86541 37.8813 2.71899 37.8813C2.57256 37.8813 2.48942 37.95 2.48942 38.1267C2.48942 38.3033 2.58497 38.4493 2.88651 38.6812C3.27118 38.9794 3.39155 39.1855 3.39155 39.5058C3.39155 39.9254 3.14337 40.1609 2.69789 40.1609C2.25241 40.1609 2.02161 39.9315 2.02161 39.5192Z" fill="#E6005C"/>
<path d="M4.25302 37.9201H3.7728V37.552H5.19361V37.9201H4.71215V40.1286H4.25302V37.9201Z" fill="#E6005C"/>
<path d="M5.6532 37.552H6.33445C6.81095 37.552 7.01569 37.7471 7.01569 38.1446V38.3029C7.01569 38.5667 6.91891 38.736 6.71416 38.8108V38.817C6.94372 38.8796 7.01942 39.071 7.01942 39.3617V39.8206C7.011 39.9273 7.02801 40.0345 7.06905 40.1335H6.60124C6.5639 40.0323 6.54991 39.9242 6.56029 39.8169V39.3458C6.56029 39.1065 6.48087 39.0292 6.27116 39.0292H6.11233V40.1335H5.6532V37.552ZM6.27364 38.6563C6.44489 38.6563 6.54912 38.5912 6.54912 38.3839V38.1851C6.54912 38.0023 6.47839 37.9213 6.31583 37.9213H6.10612V38.6575L6.27364 38.6563Z" fill="#E6005C"/>
<path d="M7.57425 37.552H8.83375V37.9201H8.03958V38.601H8.67119V38.9691H8.03958V39.7593H8.83375V40.1274H7.58045L7.57425 37.552Z" fill="#E6005C"/>
<path d="M9.30014 39.5291V38.1451C9.30014 37.7488 9.53467 37.5132 9.97767 37.5132C10.4207 37.5132 10.654 37.7488 10.654 38.1451V38.4174H10.2196V38.1193C10.2196 38.0895 10.2137 38.06 10.2022 38.0324C10.1906 38.0049 10.1737 37.9799 10.1524 37.9588C10.1311 37.9377 10.1058 37.921 10.0779 37.9096C10.0501 37.8982 10.0202 37.8923 9.99007 37.8923C9.95993 37.8923 9.93008 37.8982 9.90222 37.9096C9.87437 37.921 9.84906 37.9377 9.82775 37.9588C9.80643 37.9799 9.78952 38.0049 9.77799 38.0324C9.76645 38.06 9.76051 38.0895 9.76051 38.1193V39.5585C9.76051 39.5883 9.76645 39.6178 9.77799 39.6454C9.78952 39.6729 9.80643 39.6979 9.82775 39.719C9.84906 39.7401 9.87437 39.7568 9.90222 39.7682C9.93008 39.7796 9.95993 39.7855 9.99007 39.7855C10.0202 39.7855 10.0501 39.7796 10.0779 39.7682C10.1058 39.7568 10.1311 39.7401 10.1524 39.719C10.1737 39.6979 10.1906 39.6729 10.2022 39.6454C10.2137 39.6178 10.2196 39.5883 10.2196 39.5585V39.1647H10.654V39.5327C10.654 39.9303 10.4207 40.1658 9.97767 40.1658C9.53467 40.1658 9.30014 39.9266 9.30014 39.5291Z" fill="#E6005C"/>
<path d="M11.1665 37.552H11.6268V38.601H12.1232V37.552H12.5836V40.1286H12.1232V38.9703H11.6268V40.1286H11.1665V37.552Z" fill="#E6005C"/>
<path d="M13.1282 39.515V38.1654C13.1282 37.7544 13.3764 37.5188 13.8256 37.5188C14.2748 37.5188 14.5229 37.7544 14.5229 38.1654V39.515C14.5229 39.9273 14.2748 40.1629 13.8256 40.1629C13.3764 40.1629 13.1282 39.9273 13.1282 39.515ZM14.0638 39.5408V38.1347C14.0638 37.9507 13.972 37.882 13.8256 37.882C13.6791 37.882 13.5873 37.9507 13.5873 38.1347V39.5408C13.5873 39.7249 13.6791 39.7948 13.8256 39.7948C13.972 39.7948 14.0638 39.7249 14.0638 39.5408Z" fill="#E6005C"/>
<path d="M15.9762 37.552H16.6785C17.1376 37.552 17.3635 37.7765 17.3635 38.1876V39.4906C17.3635 39.9028 17.1376 40.1274 16.6785 40.1274H15.9762V37.552ZM16.6698 39.7605C16.8162 39.7605 16.9043 39.6942 16.9043 39.5151V38.1704C16.9043 37.9863 16.8162 37.925 16.6698 37.925H16.4353V39.7654L16.6698 39.7605Z" fill="#E6005C"/>
<path d="M17.9114 37.552H19.1647V37.9201H18.3705V38.601H19.0021V38.9691H18.3705V39.7593H19.1647V40.1274H17.9114V37.552Z" fill="#E6005C"/>
<path d="M20.5724 37.552H21.2289L21.5205 39.3924H21.5292L21.822 37.552H22.4834V40.1286H22.0479V38.1765H22.0392L21.7054 40.1274H21.3207L20.9869 38.1765H20.9782V40.1274H20.5724V37.552Z" fill="#E6005C"/>
<path d="M23.4151 37.552H24.0355L24.512 40.1286H24.0529L23.9685 39.6169V39.6243H23.4473L23.3629 40.1286H22.9373L23.4151 37.552ZM23.9114 39.2697L23.7067 37.9974H23.698L23.497 39.2697H23.9114Z" fill="#E6005C"/>
<path d="M24.9314 39.515V38.1654C24.9314 37.7544 25.1647 37.5188 25.6163 37.5188C26.068 37.5188 26.3013 37.7544 26.3013 38.1654V38.3862H25.867V38.1409C25.867 37.9568 25.7752 37.8881 25.6287 37.8881C25.4823 37.8881 25.3905 37.9568 25.3905 38.1409V39.5506C25.3905 39.7347 25.4823 39.796 25.6287 39.796C25.7752 39.796 25.867 39.7297 25.867 39.5506V39.0463H25.6374V38.6783H26.3013V39.5212C26.3013 39.9334 26.068 40.169 25.6163 40.169C25.1647 40.169 24.9314 39.9273 24.9314 39.515Z" fill="#E6005C"/>
<path d="M27.1901 37.552H27.8106L28.2871 40.1286H27.828L27.7436 39.6169V39.6243H27.2236L27.1405 40.1286H26.7149L27.1901 37.552ZM27.6927 39.2697L27.4879 37.9974H27.4793L27.2782 39.2697H27.6927Z" fill="#E6005C"/>
<path d="M28.7497 37.552H29.2101V39.7605H29.9658V40.1286H28.7497V37.552Z" fill="#E6005C"/>
<path d="M30.4264 37.552H30.8855V39.7605H31.6424V40.1286H30.4264V37.552Z" fill="#E6005C"/>
<path d="M32.4728 37.552H33.0933L33.5698 40.1286H33.1107L33.0263 39.6169V39.6243H32.5039L32.4207 40.1286H31.9951L32.4728 37.552ZM32.9692 39.2697L32.7645 37.9974H32.7558L32.5547 39.2697H32.9692Z" fill="#E6005C"/>
<path d="M34.0298 37.552H34.6069L35.0536 39.093H35.0623V37.552H35.4718V40.1286H35.0002L34.448 38.2489H34.4393V40.1274H34.0298V37.552Z" fill="#E6005C"/>
<path d="M36.0534 37.552H37.3067V37.9201H36.5125V38.601H37.1441V38.9691H36.5125V39.7593H37.3067V40.1274H36.0534V37.552Z" fill="#E6005C"/>
<path d="M37.7372 39.5192V39.372H38.1715V39.5487C38.1715 39.7327 38.2633 39.7941 38.4097 39.7941C38.5562 39.7941 38.648 39.7278 38.648 39.5364C38.648 39.3229 38.5562 39.1867 38.2559 38.9549C37.8712 38.6567 37.7459 38.4469 37.7459 38.1537C37.7459 37.7488 37.9841 37.5132 38.4308 37.5132C38.8775 37.5132 39.0997 37.7488 39.0997 38.1598V38.2665H38.6654V38.134C38.6654 37.95 38.581 37.8813 38.4345 37.8813C38.2881 37.8813 38.205 37.95 38.205 38.1267C38.205 38.3033 38.3018 38.4493 38.6021 38.6812C38.9867 38.9794 39.1084 39.1855 39.1084 39.5058C39.1084 39.9254 38.8602 40.1609 38.4147 40.1609C37.9692 40.1609 37.7372 39.9315 37.7372 39.5192Z" fill="#E6005C"/>
<path d="M0.166656 15.5474H3.75283L6.5349 24.2121H6.58702V15.5474H9.13457V30.0216H6.19738L2.76508 19.4552H2.7142V30.0216H0.166656V15.5474Z" fill="#E6005C"/>
<path d="M14.1252 15.5474H11.2661V30.0216H14.1252V15.5474Z" fill="#E6005C"/>
<path d="M16.2571 15.5474H20.3384L22.1575 25.9077H22.2096L24.0288 15.5474H28.1113V30.0216H25.4074V19.0626H25.3553L23.2756 30.0216H20.8831L18.8046 19.0626H18.7525V30.0216H16.2571V15.5474Z" fill="#E6005C"/>
<path d="M30.2424 15.5474H34.5582C37.5214 15.5474 38.7946 16.643 38.7946 18.8761V19.4552C38.7946 20.9447 38.2238 21.8747 36.9494 22.2882V22.3299C38.4831 22.7434 39.0812 23.8195 39.0812 25.3495V26.5899C39.0812 28.823 37.5996 30.0254 34.7381 30.0254H30.2424V15.5474ZM34.2194 21.4367C35.2866 21.4367 35.9356 21.0686 35.9356 19.9067V19.0994C35.9356 18.0663 35.4938 17.6111 34.48 17.6111H33.1026V21.4367H34.2194ZM34.7394 27.9506C35.701 27.9506 36.2222 27.5985 36.2222 26.5236V25.266C36.2222 23.9164 35.675 23.5078 34.3758 23.5078H33.1026V27.9543L34.7394 27.9506Z" fill="#E6005C"/>
<path d="M40.6413 26.5899V15.5474H43.2373V26.7555C43.2373 27.7886 43.7336 28.1616 44.5588 28.1616C45.384 28.1616 45.8804 27.7935 45.8804 26.7555V15.5474H48.3832V26.5899C48.3832 28.9051 47.0617 30.229 44.5116 30.229C41.9616 30.229 40.6413 28.9027 40.6413 26.5899Z" fill="#E6005C"/>
<path d="M49.7271 26.4323V25.6053H52.132V26.5979C52.132 27.631 52.6407 28.004 53.4498 28.004C54.2589 28.004 54.7689 27.6359 54.7689 26.5562C54.7689 25.3562 54.2589 24.5931 52.5948 23.29C50.4679 21.614 49.7743 20.4349 49.7743 18.781C49.7743 16.5062 51.0921 15.1836 53.5664 15.1836C56.0408 15.1836 57.2655 16.5062 57.2655 18.8227V19.4227H54.8607V18.6779C54.8607 17.6449 54.3991 17.251 53.5888 17.251C52.7785 17.251 52.3169 17.6449 52.3169 18.6362C52.3169 19.6914 52.8492 20.4558 54.5145 21.7588C56.6414 23.4336 57.3127 24.5918 57.3127 26.3918C57.3127 28.7487 55.9713 30.0726 53.4734 30.0726C50.9755 30.0726 49.7271 28.75 49.7271 26.4335" fill="#E6005C"/>
<path d="M80.4953 19.8596V19.8854C80.6202 19.7259 80.7414 19.5623 80.8588 19.3946C81.4674 18.5316 81.962 17.5952 82.3305 16.6082L82.3057 16.6254C82.811 15.2727 83.069 13.8418 83.0676 12.3998C83.062 11.506 82.717 10.6468 82.1011 9.99257C81.4851 9.33832 80.6431 8.93668 79.7419 8.86723C78.8406 8.79778 77.9458 9.06558 77.2348 9.61757C76.5237 10.1696 76.0483 10.9655 75.9027 11.8477H76.7713C76.9121 11.189 77.2945 10.6051 77.8448 10.2087C78.3952 9.81222 79.0744 9.63122 79.7517 9.70056C80.4289 9.7699 81.0563 10.0847 81.5127 10.5842C81.9692 11.0838 82.2225 11.7327 82.2238 12.4059C82.2268 15.3793 81.0536 18.236 78.9549 20.3655C76.8561 22.4951 73.9983 23.7285 70.992 23.8024C67.9857 23.8763 65.0694 22.7846 62.8663 20.7608C60.6632 18.737 59.3479 15.9414 59.2016 12.9715H58.3454C58.4622 15.4737 59.3537 17.88 60.8992 19.8648C62.4446 21.8496 64.5694 23.317 66.986 24.0685C69.4027 24.8201 71.9944 24.8194 74.4107 24.0666C76.8269 23.3138 78.9509 21.8452 80.4953 19.8596Z" fill="#E6005C"/>
<path d="M61.3937 12.9741H60.5387C60.6708 15.551 61.799 17.9793 63.6903 19.757C65.5817 21.5348 68.0915 22.5261 70.701 22.5261C73.3105 22.5261 75.8203 21.5348 77.7117 19.757C79.603 17.9793 80.7313 15.551 80.8633 12.9741H80.0083C79.8586 15.3141 78.8129 17.5097 77.084 19.1144C75.3551 20.7191 73.0729 21.6123 70.7016 21.6123C68.3304 21.6123 66.0481 20.7191 64.3193 19.1144C62.5904 17.5097 61.5447 15.3141 61.395 12.9741" fill="#E6005C"/>
<path d="M70.7004 19.542C68.8858 19.5408 67.1381 18.8645 65.8047 17.6477C64.4712 16.4308 63.6497 14.7624 63.5032 12.9741H62.6495C62.7883 14.9909 63.6964 16.8803 65.1903 18.2602C66.6841 19.6402 68.6523 20.4078 70.6966 20.4078C72.741 20.4078 74.7091 19.6402 76.203 18.2602C77.6968 16.8803 78.605 14.9909 78.7438 12.9741H77.8888C77.7421 14.7623 76.9204 16.4305 75.587 17.6473C74.2537 18.8641 72.5061 19.5405 70.6917 19.542" fill="#E6005C"/>
<path d="M70.6995 18.3273C72.1873 18.3253 73.6211 17.7762 74.722 16.7868C75.8229 15.7973 76.5122 14.4383 76.6558 12.9741H75.7983C75.6584 14.2146 75.0608 15.3605 74.12 16.1927C73.1793 17.0249 71.9612 17.485 70.6989 17.485C69.4366 17.485 68.2185 17.0249 67.2777 16.1927C66.337 15.3605 65.7394 14.2146 65.5995 12.9741H64.742C64.8856 14.4383 65.5749 15.7973 66.6758 16.7868C67.7767 17.7762 69.2105 18.3253 70.6983 18.3273" fill="#E6005C"/>
<path d="M68.0062 12.9741H67.1376C67.2662 13.8162 67.6959 14.5848 68.3489 15.1402C69.0018 15.6956 69.8345 16.0011 70.6958 16.0011C71.5571 16.0011 72.3899 15.6956 73.0428 15.1402C73.6957 14.5848 74.1255 13.8162 74.2541 12.9741H73.3854C73.2542 13.5846 72.915 14.1319 72.4245 14.5247C71.934 14.9174 71.322 15.1317 70.6909 15.1317C70.0597 15.1317 69.4477 14.9174 68.9572 14.5247C68.4667 14.1319 68.1275 13.5846 67.9963 12.9741" fill="#E6005C"/>
<path d="M79.4635 0.166748C76.2802 0.170657 73.2207 1.38634 70.9198 3.56152C68.6189 5.73669 67.2535 8.70431 67.1068 11.8485H67.9592C68.0684 9.5312 68.8889 7.30174 70.3115 5.45696C71.734 3.61218 73.6911 2.2396 75.9222 1.52197C78.1533 0.804343 80.5526 0.775704 82.8005 1.43987C85.0485 2.10404 87.0386 3.4295 88.5057 5.23978C89.9729 7.05007 90.8476 9.25929 91.0133 11.5733C91.179 13.8874 90.628 16.1964 89.4335 18.1931C88.2389 20.1897 86.4577 21.7793 84.3268 22.75C82.1959 23.7208 79.8165 24.0268 77.5054 23.6272C77.1282 23.8512 76.7398 24.0559 76.3414 24.2407C78.0421 24.6787 79.8177 24.7535 81.5499 24.46C83.2821 24.1666 84.9313 23.5116 86.3875 22.5387C87.8437 21.5659 89.0736 20.2974 89.9952 18.8179C90.9169 17.3383 91.5093 15.6816 91.7328 13.958C91.9563 12.2344 91.806 10.4834 91.2917 8.82181C90.7774 7.16016 89.911 5.62592 88.7502 4.32122C87.5893 3.01652 86.1607 1.97131 84.5594 1.25517C82.9582 0.539037 81.221 0.168413 79.4635 0.167975" fill="#E6005C"/>
<path d="M79.4633 22.1987V22.4649C81.4517 22.4643 83.3963 21.8877 85.0568 20.8063C86.7174 19.725 88.0211 18.1863 88.807 16.3803C89.5928 14.5744 89.8263 12.5803 89.4786 10.6446C89.1309 8.70891 88.2173 6.91633 86.8505 5.4884C85.4838 4.06047 83.7239 3.05976 81.7883 2.60992C79.8527 2.16008 77.8262 2.28083 75.9593 2.95725C74.0923 3.63366 72.4667 4.8361 71.2833 6.41598C70.0999 7.99586 69.4105 9.88395 69.3004 11.8469H70.1554C70.2637 10.0774 70.8856 8.37628 71.9467 6.94728C73.0077 5.51829 74.4629 4.42202 76.1379 3.78978C77.8129 3.15755 79.6368 3.01616 81.3909 3.38254C83.1451 3.74893 84.7553 4.60755 86.0287 5.85558C87.302 7.1036 88.1844 8.68812 88.5704 10.4193C88.9563 12.1505 88.8293 13.955 88.2045 15.6167C87.5798 17.2784 86.4839 18.7268 85.048 19.7884C83.6121 20.85 81.8972 21.4798 80.1086 21.6024C79.9001 21.8093 79.685 22.0097 79.4633 22.2036" fill="#E6005C"/>
<path d="M81.3547 20.1632C82.8029 19.8174 84.126 19.0816 85.1772 18.0376C86.2284 16.9936 86.9665 15.6821 87.3098 14.2485C87.6531 12.815 87.5881 11.3155 87.1221 9.91623C86.656 8.51699 85.8071 7.27273 84.6694 6.32144C83.5318 5.37016 82.1499 4.74903 80.677 4.52694C79.2041 4.30485 77.6978 4.49048 76.3251 5.06325C74.9524 5.63601 73.767 6.57352 72.9003 7.77181C72.0336 8.9701 71.5196 10.3823 71.4151 11.8519H72.2701C72.3701 10.5817 72.8122 9.36121 73.5505 8.31712C74.2888 7.27303 75.2964 6.44346 76.4686 5.91458C77.6408 5.3857 78.9348 5.17681 80.2163 5.30961C81.4977 5.44241 82.7199 5.91205 83.7557 6.66975C84.7915 7.42745 85.6032 8.44557 86.1066 9.61833C86.6099 10.7911 86.7864 12.0757 86.6179 13.3388C86.4493 14.6018 85.9418 15.7972 85.1481 16.8007C84.3543 17.8043 83.3033 18.5794 82.1042 19.0455C81.8761 19.4323 81.6276 19.8071 81.3596 20.1681" fill="#E6005C"/>
<path d="M83.0311 17.1563C83.8329 16.5685 84.4733 15.7919 84.8941 14.897C85.3149 14.0021 85.5027 13.0174 85.4404 12.0324C85.3781 11.0475 85.0677 10.0935 84.5375 9.25741C84.0073 8.4213 83.274 7.72956 82.4044 7.24511C81.5349 6.76066 80.5566 6.49889 79.5586 6.48362C78.5606 6.46834 77.5746 6.70005 76.6903 7.15765C75.806 7.61525 75.0514 8.28423 74.4953 9.10371C73.9391 9.92319 73.5991 10.8672 73.506 11.8498H74.3622C74.4487 11.0743 74.7148 10.3291 75.1398 9.67185C75.5649 9.01464 76.1375 8.46317 76.8131 8.06029C77.4887 7.65741 78.2492 7.41397 79.0354 7.34888C79.8216 7.28379 80.6125 7.3988 81.3464 7.68498C82.0804 7.97117 82.7378 8.42082 83.2674 8.99899C83.7971 9.57717 84.1848 10.2683 84.4005 11.0187C84.6162 11.7691 84.654 12.5586 84.5109 13.3258C84.3679 14.0929 84.0479 14.8172 83.5758 15.4423C83.4342 16.0265 83.2522 16.6004 83.0311 17.16" fill="#E6005C"/>
<path d="M53.3037 3.17714C55.6782 3.18047 57.9623 4.07816 59.6912 5.68757C61.4201 7.29698 62.4639 9.4972 62.6104 11.8406H63.4653C63.3364 9.26141 62.2094 6.82999 60.3176 5.04965C58.4258 3.26931 55.9141 2.27637 53.3024 2.27637C50.6908 2.27637 48.1791 3.26931 46.2873 5.04965C44.3955 6.82999 43.2685 9.26141 43.1396 11.8406H43.9945C44.1407 9.4971 45.1844 7.2967 46.9134 5.68723C48.6423 4.07777 50.9266 3.18018 53.3012 3.17714" fill="#E6005C"/>
<path d="M53.3034 5.27131C55.1195 5.27274 56.8685 5.95035 58.2022 7.16923C59.5359 8.38812 60.3565 10.0589 60.5005 11.849H61.3555C61.2212 9.82875 60.3148 7.93466 58.8202 6.55081C57.3256 5.16697 55.3547 4.39697 53.3071 4.39697C51.2595 4.39697 49.2886 5.16697 47.794 6.55081C46.2994 7.93466 45.393 9.82875 45.2587 11.849H46.1137C46.2578 10.0589 47.0783 8.38812 48.412 7.16923C49.7457 5.95035 51.4947 5.27274 53.3108 5.27131" fill="#E6005C"/>
<path d="M53.1961 1.01042C56.1535 1.01407 58.9965 2.14092 61.1375 4.15812C63.2786 6.17532 64.554 8.92869 64.7004 11.8493H65.5529C65.4103 8.70359 64.0461 5.73351 61.7444 3.55738C59.4426 1.38124 56.3807 0.166748 53.1961 0.166748C50.0115 0.166748 46.9496 1.38124 44.6478 3.55738C42.3461 5.73351 40.9819 8.70359 40.8393 11.8493H41.6918C41.8394 8.92956 43.1154 6.17741 45.2564 4.16125C47.3973 2.14509 50.2395 1.01891 53.1961 1.01532" fill="#E6005C"/>
<path d="M53.1964 6.48291C51.707 6.48512 50.2719 7.03561 49.1708 8.02709C48.0696 9.01856 47.3813 10.38 47.2401 11.8459H48.0963C48.235 10.604 48.8322 9.45641 49.7735 8.62285C50.7148 7.78928 51.934 7.32836 53.1976 7.32836C54.4612 7.32836 55.6804 7.78928 56.6217 8.62285C57.563 9.45641 58.1602 10.604 58.2989 11.8459H59.1551C59.0139 10.38 58.3256 9.01856 57.2244 8.02709C56.1233 7.03561 54.6882 6.48512 53.1988 6.48291" fill="#E6005C"/>
</svg>
